<svg width="214" height="138" viewBox="0 0 214 138" fill="none" xmlns="http://www.w3.org/2000/svg">
<g clip-path="url(#clip0_38_318)">
<path d="M34.7651 64.2606C37.8978 64.2606 40.4373 61.7318 40.4373 58.6123C40.4373 55.4929 37.8978 52.9641 34.7651 52.9641C31.6323 52.9641 29.0928 55.4929 29.0928 58.6123C29.0928 61.7318 31.6323 64.2606 34.7651 64.2606Z" fill="#FFB8B8"/>
<path d="M15.5986 126.297L17.0349 128.727L27.13 124.367L25.0102 120.781L15.5986 126.297Z" fill="#FFB8B8"/>
<path d="M16.0291 125.211L18.8576 129.996L18.8577 129.996C19.0944 130.396 19.2495 130.839 19.3143 131.3C19.3791 131.76 19.3523 132.228 19.2353 132.678C19.1183 133.128 18.9134 133.55 18.6325 133.921C18.3515 134.292 17.9999 134.604 17.5977 134.84L17.4982 134.898L12.8672 127.064L16.0291 125.211Z" fill="#2F2E41"/>
<path d="M32.2402 135.051L35.0716 135.05L36.4185 124.176L32.2397 124.176L32.2402 135.051Z" fill="#FFB8B8"/>
<path d="M31.5181 134.13L37.094 134.13H37.0942C37.5609 134.13 38.0229 134.221 38.4541 134.399C38.8852 134.577 39.2769 134.838 39.6069 135.166C39.9369 135.495 40.1986 135.885 40.3772 136.314C40.5558 136.743 40.6477 137.204 40.6477 137.668V137.783L31.5182 137.784L31.5181 134.13Z" fill="#2F2E41"/>
<path d="M20.8569 128.462C20.694 128.462 20.5333 128.424 20.3879 128.351C20.2425 128.278 20.1164 128.171 20.02 128.041L17.2893 124.348C17.206 124.235 17.1465 124.107 17.1144 123.97C17.0823 123.834 17.0783 123.693 17.1025 123.555C17.1268 123.417 17.1789 123.286 17.2556 123.169C17.3324 123.052 17.4322 122.951 17.549 122.873L29.7 114.792L22.3683 95.5956L38.047 96.884L38.5751 113.38C38.6247 114.883 38.2631 116.37 37.529 117.684C36.7949 118.997 35.716 120.087 34.4076 120.837L21.3761 128.323C21.2184 128.414 21.0393 128.462 20.8569 128.462Z" fill="#2F2E41"/>
<path d="M32.3256 132.843C32.0567 132.842 31.7985 132.738 31.6052 132.552C31.4119 132.366 31.2985 132.112 31.289 131.845L30.7144 115.774L37.8294 115.401L37.2629 131.587C37.2546 131.843 37.1506 132.088 36.9713 132.272C36.7919 132.456 36.5501 132.567 36.293 132.583L32.3963 132.841C32.3726 132.842 32.3491 132.843 32.3256 132.843Z" fill="#2F2E41"/>
<path d="M39.8618 100.075C38.0515 100.075 31.7286 98.0477 29.5336 97.325C29.2052 97.5867 27.4012 98.9299 25.2954 98.6844C23.9961 98.5326 22.8523 97.8002 21.8957 96.5076C19.7832 93.6527 22.3924 81.4099 24.9532 71.6421C25.4666 69.6677 26.7287 67.9684 28.4742 66.9014C30.2197 65.8344 32.3127 65.4828 34.3131 65.9205C35.763 66.2393 37.0949 66.9543 38.1592 67.9852C39.2235 69.0162 39.978 70.3222 40.338 71.7566C40.8201 73.7109 40.4053 76.0097 40.1025 77.6884C39.9601 78.4776 39.8477 79.101 39.8861 79.4073C40.0347 80.5913 40.8604 99.1596 40.3295 99.9526C40.273 100.037 40.1094 100.075 39.8618 100.075Z" fill="#F6A2BC"/>
<path d="M33.2396 100.108C33.5306 99.8924 33.7705 99.6159 33.9425 99.2979C34.1145 98.9799 34.2143 98.6282 34.2351 98.2677C34.2558 97.9071 34.1969 97.5464 34.0625 97.2109C33.9281 96.8755 33.7214 96.5734 33.4571 96.3261L33.5692 73.8253L28.2471 74.7077L29.8104 96.5479C29.4226 97.0176 29.2213 97.6126 29.2446 98.2202C29.2679 98.8278 29.5142 99.4058 29.9369 99.8447C30.3596 100.284 30.9293 100.553 31.538 100.601C32.1467 100.65 32.7522 100.474 33.2396 100.108Z" fill="#FFB8B8"/>
<path d="M34.4703 88.2755H28.7378C28.464 88.2747 28.2016 88.1667 28.0071 87.9748C27.8127 87.7829 27.7018 87.5226 27.6985 87.25L27.5578 71.7751C27.5529 71.24 27.6546 70.7092 27.857 70.2135C28.0595 69.7178 28.3586 69.267 28.7371 68.8872C29.1156 68.5073 29.5659 68.2059 30.0622 68.0005C30.5584 67.795 31.0905 67.6896 31.6279 67.6902C32.1653 67.6909 32.6972 67.7976 33.1929 68.0043C33.6886 68.2109 34.1383 68.5134 34.5158 68.8942C34.8934 69.275 35.1914 69.7265 35.3926 70.2227C35.5938 70.7189 35.6942 71.2499 35.688 71.785L35.5095 87.2525C35.5054 87.5246 35.3942 87.7842 35.1999 87.9755C35.0056 88.1669 34.7436 88.2746 34.4703 88.2755Z" fill="#F6A2BC"/>
<path d="M33.321 64.2371C30.7239 64.2418 28.2738 62.1977 27.8238 59.6508C27.6626 58.6502 27.7353 57.6261 28.0361 56.6581C28.3626 55.556 28.9227 54.5365 29.6785 53.6682C30.4342 52.7999 31.3682 52.1031 32.4173 51.6247C33.4664 51.1462 34.6064 50.8973 35.7603 50.8947C36.9142 50.8921 38.0553 51.1359 39.1066 51.6096C39.8013 51.9227 40.4857 52.3723 40.8038 53.0624C41.1219 53.7525 40.9228 54.7171 40.2269 55.0276C39.7721 55.2306 39.2014 55.1309 38.798 55.4222C38.2185 55.8406 38.3676 56.731 38.6264 57.3956C38.8852 58.0602 39.1779 58.8644 38.7441 59.4313C38.3399 59.9597 37.5319 59.9433 36.8955 59.7444C36.2591 59.5456 35.6309 59.2126 34.9674 59.2803C33.9996 59.3791 33.3042 60.3376 33.1755 61.2978C33.0467 62.258 33.3498 63.2178 33.6489 64.1396L33.321 64.2371Z" fill="#2F2E41"/>
<path d="M59.8151 138H0.230946C0.169696 138 0.110953 137.976 0.0676425 137.933C0.0243316 137.89 0 137.831 0 137.77C0 137.709 0.0243316 137.651 0.0676425 137.607C0.110953 137.564 0.169696 137.54 0.230946 137.54H59.8151C59.8764 137.54 59.9351 137.564 59.9784 137.607C60.0217 137.651 60.0461 137.709 60.0461 137.77C60.0461 137.831 60.0217 137.89 59.9784 137.933C59.9351 137.976 59.8764 138 59.8151 138Z" fill="#CCCCCC"/>
<path d="M210.189 99.9318H62.19C61.1797 99.9307 60.2111 99.5306 59.4968 98.8192C58.7824 98.1078 58.3805 97.1434 58.3794 96.1374V5.26486C58.3802 4.52784 58.6746 3.82125 59.198 3.3001C59.7213 2.77894 60.4309 2.48577 61.1711 2.48492H211.16C211.913 2.48578 212.635 2.784 213.167 3.31417C213.7 3.84434 213.999 4.56315 214 5.31292V96.1374C213.999 97.1434 213.597 98.1078 212.883 98.8192C212.168 99.5306 211.2 99.9307 210.189 99.9318Z" fill="#F2F2F2"/>
<path d="M205.404 95.1411H67.4725C65.4506 95.1411 63.8057 93.6072 63.8057 91.7219V12.589C63.8057 11.1908 65.0246 10.0532 66.5229 10.0532H206.309C207.832 10.0532 209.071 11.2095 209.071 12.6308V91.7219C209.071 93.6072 207.426 95.1411 205.404 95.1411Z" fill="white"/>
<path d="M213.947 5.73773H58.3257V3.80591C58.3271 2.79656 58.7306 1.82901 59.4476 1.11551C60.1646 0.40201 61.1365 0.000836937 62.1502 0H210.122C211.136 0.000828425 212.108 0.401998 212.825 1.1155C213.542 1.829 213.945 2.79656 213.947 3.80591V5.73773Z" fill="#3F3D56"/>
<path d="M65.2763 3.85962C65.8227 3.85962 66.2656 3.4186 66.2656 2.87457C66.2656 2.33055 65.8227 1.88953 65.2763 1.88953C64.73 1.88953 64.2871 2.33055 64.2871 2.87457C64.2871 3.4186 64.73 3.85962 65.2763 3.85962Z" fill="#F6A2BC"/>
<path d="M69.0312 3.85962C69.5776 3.85962 70.0205 3.4186 70.0205 2.87457C70.0205 2.33055 69.5776 1.88953 69.0312 1.88953C68.4849 1.88953 68.042 2.33055 68.042 2.87457C68.042 3.4186 68.4849 3.85962 69.0312 3.85962Z" fill="#F6A2BC"/>
<path d="M72.7861 3.85962C73.3324 3.85962 73.7753 3.4186 73.7753 2.87457C73.7753 2.33055 73.3324 1.88953 72.7861 1.88953C72.2398 1.88953 71.7969 2.33055 71.7969 2.87457C71.7969 3.4186 72.2398 3.85962 72.7861 3.85962Z" fill="#F6A2BC"/>
<path d="M133.166 27.3556H106.19C105.788 27.3556 105.402 27.1965 105.117 26.9134C104.833 26.6302 104.673 26.2461 104.673 25.8456C104.673 25.4452 104.833 25.0611 105.117 24.7779C105.402 24.4947 105.788 24.3356 106.19 24.3356H133.166C133.568 24.3356 133.954 24.4947 134.238 24.7779C134.523 25.0611 134.683 25.4452 134.683 25.8456C134.683 26.2461 134.523 26.6302 134.238 26.9134C133.954 27.1965 133.568 27.3556 133.166 27.3556Z" fill="#CCCCCC"/>
<path d="M166.687 27.3556H139.711C139.309 27.3556 138.923 27.1965 138.638 26.9134C138.354 26.6302 138.194 26.2461 138.194 25.8456C138.194 25.4452 138.354 25.0611 138.638 24.7779C138.923 24.4947 139.309 24.3356 139.711 24.3356H166.687C167.089 24.3356 167.475 24.4947 167.759 24.7779C168.044 25.0611 168.204 25.4452 168.204 25.8456C168.204 26.2461 168.044 26.6302 167.759 26.9134C167.475 27.1965 167.089 27.3556 166.687 27.3556Z" fill="#CCCCCC"/>
<path d="M166.687 33.0777H119.758C119.355 33.0777 118.97 32.9186 118.685 32.6355C118.401 32.3523 118.241 31.9682 118.241 31.5677C118.241 31.1673 118.401 30.7832 118.685 30.5C118.97 30.2168 119.355 30.0577 119.758 30.0577H166.687C167.089 30.0577 167.475 30.2168 167.759 30.5C168.044 30.7832 168.203 31.1673 168.203 31.5677C168.203 31.9682 168.044 32.3523 167.759 32.6355C167.475 32.9186 167.089 33.0777 166.687 33.0777Z" fill="#CCCCCC"/>
<path d="M133.166 21.5541H106.19C105.788 21.5536 105.403 21.3943 105.119 21.1111C104.835 20.828 104.675 20.4442 104.675 20.0441C104.675 19.6439 104.835 19.2601 105.119 18.977C105.403 18.6939 105.788 18.5346 106.19 18.5341H133.166C133.366 18.5338 133.563 18.5727 133.747 18.6485C133.931 18.7242 134.099 18.8354 134.24 18.9757C134.381 19.1159 134.493 19.2824 134.569 19.4658C134.645 19.6491 134.685 19.8456 134.685 20.0441C134.685 20.2425 134.645 20.439 134.569 20.6223C134.493 20.8057 134.381 20.9722 134.24 21.1124C134.099 21.2527 133.931 21.3639 133.747 21.4396C133.563 21.5154 133.366 21.5543 133.166 21.5541Z" fill="#CCCCCC"/>
<path d="M148.011 21.6336H140.349C139.947 21.6336 139.562 21.4745 139.277 21.1913C138.993 20.9081 138.833 20.5241 138.833 20.1236C138.833 19.7231 138.993 19.339 139.277 19.0559C139.562 18.7727 139.947 18.6136 140.349 18.6136H148.011C148.414 18.6136 148.799 18.7727 149.084 19.0559C149.368 19.339 149.528 19.7231 149.528 20.1236C149.528 20.5241 149.368 20.9081 149.084 21.1913C148.799 21.4745 148.414 21.6336 148.011 21.6336Z" fill="#CCCCCC"/>
<path d="M113.852 33.0777H106.19C105.788 33.0772 105.403 32.9179 105.119 32.6348C104.835 32.3517 104.675 31.9679 104.675 31.5677C104.675 31.1676 104.835 30.7838 105.119 30.5007C105.403 30.2175 105.788 30.0582 106.19 30.0577H113.852C114.051 30.0575 114.248 30.0964 114.433 30.1721C114.617 30.2479 114.784 30.3591 114.925 30.4993C115.066 30.6396 115.178 30.8061 115.254 30.9895C115.331 31.1728 115.37 31.3693 115.37 31.5677C115.37 31.7662 115.331 31.9627 115.254 32.146C115.178 32.3293 115.066 32.4959 114.925 32.6361C114.784 32.7764 114.617 32.8875 114.433 32.9633C114.248 33.0391 114.051 33.078 113.852 33.0777Z" fill="#CCCCCC"/>
<path d="M133.166 80.9381H106.19C105.788 80.9381 105.402 80.779 105.117 80.4958C104.833 80.2126 104.673 79.8286 104.673 79.4281C104.673 79.0276 104.833 78.6435 105.117 78.3604C105.402 78.0772 105.788 77.9181 106.19 77.9181H133.166C133.365 77.9181 133.562 77.9571 133.746 78.033C133.93 78.1089 134.098 78.2201 134.238 78.3604C134.379 78.5006 134.491 78.667 134.567 78.8502C134.643 79.0334 134.683 79.2298 134.683 79.4281C134.683 79.6264 134.643 79.8227 134.567 80.0059C134.491 80.1891 134.379 80.3556 134.238 80.4958C134.098 80.636 133.93 80.7473 133.746 80.8231C133.562 80.899 133.365 80.9381 133.166 80.9381Z" fill="#CCCCCC"/>
<path d="M166.687 80.9381H139.711C139.309 80.9381 138.923 80.779 138.638 80.4958C138.354 80.2126 138.194 79.8286 138.194 79.4281C138.194 79.0276 138.354 78.6435 138.638 78.3604C138.923 78.0772 139.309 77.9181 139.711 77.9181H166.687C166.886 77.9181 167.084 77.9571 167.267 78.033C167.451 78.1089 167.619 78.2201 167.759 78.3604C167.9 78.5006 168.012 78.667 168.088 78.8502C168.164 79.0334 168.204 79.2298 168.204 79.4281C168.204 79.6264 168.164 79.8227 168.088 80.0059C168.012 80.1891 167.9 80.3556 167.759 80.4958C167.619 80.636 167.451 80.7473 167.267 80.8231C167.084 80.899 166.886 80.9381 166.687 80.9381Z" fill="#CCCCCC"/>
<path d="M166.687 86.6602H119.758C119.355 86.6602 118.97 86.5011 118.685 86.2179C118.401 85.9347 118.241 85.5507 118.241 85.1502C118.241 84.7497 118.401 84.3656 118.685 84.0825C118.97 83.7993 119.355 83.6402 119.758 83.6402H166.687C166.886 83.64 167.084 83.6788 167.268 83.7546C167.452 83.8304 167.619 83.9416 167.761 84.0818C167.902 84.222 168.013 84.3886 168.09 84.5719C168.166 84.7552 168.205 84.9517 168.205 85.1502C168.205 85.3486 168.166 85.5451 168.09 85.7285C168.013 85.9118 167.902 86.0783 167.761 86.2186C167.619 86.3588 167.452 86.47 167.268 86.5458C167.084 86.6215 166.886 86.6604 166.687 86.6602Z" fill="#CCCCCC"/>
<path d="M133.166 75.1365H106.19C105.788 75.1365 105.402 74.9774 105.117 74.6942C104.833 74.4111 104.673 74.027 104.673 73.6265C104.673 73.226 104.833 72.842 105.117 72.5588C105.402 72.2756 105.788 72.1165 106.19 72.1165H133.166C133.568 72.1165 133.954 72.2756 134.238 72.5588C134.523 72.842 134.683 73.226 134.683 73.6265C134.683 74.027 134.523 74.4111 134.238 74.6942C133.954 74.9774 133.568 75.1365 133.166 75.1365Z" fill="#CCCCCC"/>
<path d="M148.011 75.216H140.349C139.947 75.216 139.562 75.0569 139.277 74.7737C138.993 74.4905 138.833 74.1065 138.833 73.706C138.833 73.3055 138.993 72.9214 139.277 72.6383C139.562 72.3551 139.947 72.196 140.349 72.196H148.011C148.414 72.196 148.799 72.3551 149.084 72.6383C149.368 72.9214 149.528 73.3055 149.528 73.706C149.528 74.1065 149.368 74.4905 149.084 74.7737C148.799 75.0569 148.414 75.216 148.011 75.216Z" fill="#CCCCCC"/>
<path d="M113.852 86.6602H106.19C105.788 86.6602 105.402 86.5011 105.117 86.2179C104.833 85.9347 104.673 85.5507 104.673 85.1502C104.673 84.7497 104.833 84.3656 105.117 84.0825C105.402 83.7993 105.788 83.6402 106.19 83.6402H113.852C114.051 83.64 114.248 83.6788 114.433 83.7546C114.617 83.8304 114.784 83.9416 114.925 84.0818C115.066 84.222 115.178 84.3886 115.254 84.5719C115.331 84.7552 115.37 84.9517 115.37 85.1502C115.37 85.3486 115.331 85.5451 115.254 85.7285C115.178 85.9118 115.066 86.0783 114.925 86.2186C114.784 86.3588 114.617 86.47 114.433 86.5458C114.248 86.6215 114.051 86.6604 113.852 86.6602Z" fill="#CCCCCC"/>
<path d="M126.121 64.727C125.548 64.7283 124.999 64.5043 124.591 64.1038L114.451 54.1326C114.252 53.9368 114.094 53.7036 113.986 53.4466C113.878 53.1895 113.822 52.9137 113.822 52.6351C113.822 52.3565 113.878 52.0806 113.986 51.8236C114.094 51.5665 114.252 51.3334 114.451 51.1376L124.55 41.2066C124.971 40.7949 125.538 40.565 126.128 40.5668C126.718 40.5687 127.283 40.8021 127.701 41.2165C128.12 41.6342 128.355 42.2002 128.355 42.7902C128.355 43.3803 128.12 43.9463 127.701 44.364L120.196 51.8372C119.963 52.0705 119.831 52.3867 119.831 52.7164C119.831 53.046 119.963 53.3622 120.196 53.5956L127.661 61.0282C127.965 61.3311 128.173 61.7173 128.257 62.1378C128.341 62.5584 128.298 62.9943 128.133 63.3905C127.968 63.7866 127.689 64.1251 127.331 64.363C126.973 64.601 126.552 64.7276 126.121 64.727V64.727Z" fill="#5AB1B1"/>
<path d="M142.279 64.727C141.848 64.7276 141.427 64.6009 141.069 64.363C140.711 64.1251 140.431 63.7866 140.266 63.3905C140.102 62.9943 140.058 62.5584 140.143 62.1378C140.227 61.7173 140.434 61.3311 140.739 61.0282L148.203 53.5956C148.437 53.3622 148.569 53.046 148.569 52.7164C148.569 52.3867 148.437 52.0705 148.203 51.8372L140.699 44.364C140.491 44.1573 140.326 43.912 140.214 43.6419C140.102 43.3719 140.044 43.0825 140.044 42.7902C140.044 42.498 140.102 42.2085 140.214 41.9385C140.326 41.6685 140.491 41.4232 140.699 41.2165C141.117 40.8021 141.682 40.5687 142.272 40.5668C142.862 40.565 143.429 40.7949 143.85 41.2066L153.949 51.1376C154.148 51.3334 154.306 51.5665 154.414 51.8236C154.522 52.0806 154.578 52.3565 154.578 52.6351C154.578 52.9137 154.522 53.1895 154.414 53.4466C154.306 53.7036 154.148 53.9368 153.949 54.1325L143.809 64.1038C143.401 64.5042 142.851 64.7283 142.279 64.727Z" fill="#5AB1B1"/>
</g>
<defs>
<clipPath id="clip0_38_318">
<rect width="214" height="138" fill="white"/>
</clipPath>
</defs>
</svg>
