<svg width="205" height="156" viewBox="0 0 205 156" fill="none" xmlns="http://www.w3.org/2000/svg">
<path d="M73.0557 141.214L72.6627 146.246V149.122C72.6627 149.122 71.8767 156.671 79.3435 155.952C86.8104 155.233 80.5225 144.449 80.5225 144.449L79.7365 142.292L73.0557 141.214Z" fill="#2F2E41"/>
<path d="M82.8803 130.07C82.8803 130.07 80.5224 130.789 81.3084 135.462C81.3084 135.462 83.2733 136.9 85.2383 137.619C85.9795 137.916 86.655 138.334 87.2314 138.854C89.2678 140.631 91.7977 141.864 94.5464 142.419C96.4097 142.782 98.121 142.741 98.5999 141.573C99.7789 138.697 93.884 136.181 93.884 136.181L89.1682 131.508L82.8803 130.07Z" fill="#2F2E41"/>
<path d="M108.032 81.9009C108.032 81.9009 115.105 90.5283 111.569 90.8877C108.032 91.2472 105.281 83.3388 105.281 83.3388L108.032 81.9009Z" fill="#FBBEBE"/>
<path d="M76.5925 76.5089L75.8065 101.672C75.8065 101.672 74.2345 106.345 74.6275 108.502C74.6275 108.502 73.9614 110.939 73.8556 111.887C73.8465 111.969 73.8415 112.039 73.8415 112.096C73.8415 112.815 70.6976 125.037 72.6626 133.665C72.6626 133.665 70.6976 140.495 73.0556 142.292L80.5224 142.651L80.1294 129.351L84.0593 109.221L86.0243 103.829C86.0243 103.829 82.8803 118.926 83.6663 123.959C83.6663 123.959 82.0944 128.273 82.4873 130.789C82.4873 130.789 82.8803 134.024 89.5612 131.867L90.7401 126.116L100.299 81.0289L91.1331 77.2278L76.5925 76.5089Z" fill="#2F2E41"/>
<path d="M94.2772 37.3267C98.184 37.3267 101.351 34.4297 101.351 30.8562C101.351 27.2827 98.184 24.3857 94.2772 24.3857C90.3704 24.3857 87.2034 27.2827 87.2034 30.8562C87.2034 34.4297 90.3704 37.3267 94.2772 37.3267Z" fill="#FBBEBE"/>
<path d="M88.1858 31.7549L85.4348 37.147L92.5086 41.4606L96.0456 35.709L88.1858 31.7549Z" fill="#FBBEBE"/>
<path d="M93.884 40.9214L93.7708 39.408C93.7708 39.408 88.5821 37.4483 86.3207 35.4104L84.4522 36.6078L73.4485 41.2809L77.3784 79.0252C77.3784 79.0252 84.4522 78.3062 88.7751 82.6199C93.098 86.9335 100.565 80.8225 100.565 80.8225V70.3979L98.5999 58.5354L100.565 45.5945L93.884 40.9214Z" fill="white"/>
<path d="M97.814 45.235L100.565 45.5945C100.565 45.5945 101.72 47.7073 101.363 54.721C101.359 54.7937 101.355 54.867 101.351 54.9407C100.958 62.1301 102.53 64.6464 102.53 64.6464L109.211 82.6199L104.888 84.7767L98.6 73.6332L94.2771 50.6271L97.814 45.235Z" fill="white"/>
<path d="M102.206 27.1617C102.233 26.7147 102.17 26.2671 102.021 25.8408C101.656 24.9299 100.696 24.3511 99.7852 23.8549C98.5066 23.1587 97.1814 22.4885 95.7285 22.1945C94.2757 21.9005 92.6589 22.0258 91.4492 22.8184C90.6709 23.3283 90.1166 24.0698 89.6007 24.8075C89.0125 25.5903 88.5365 26.4389 88.1844 27.3325C88.1516 27.4013 88.1439 27.478 88.1625 27.5512C88.1996 27.6201 88.258 27.6776 88.3306 27.7163C89.3018 28.3797 90.0313 28.672 89.3647 29.5981C90.9725 28.0812 92.1161 27.6557 93.7238 26.1388C93.5354 26.2982 93.8175 26.5844 94.0739 26.574C94.3304 26.5636 94.57 26.4192 94.8257 26.4396C95.1982 26.4694 95.4217 26.8162 95.6988 27.0459C95.9758 27.2756 96.5556 27.3046 96.6025 26.9653L97.5807 28.1741C97.7754 28.108 97.9463 27.9937 98.0742 27.844L99.1282 29.3017L99.572 28.8667C99.7688 29.1416 99.9461 29.4278 100.103 29.7236C100.927 29.0984 101.178 30.6469 101.179 31.0135C102.074 30.8914 102.197 27.8268 102.206 27.1617Z" fill="#2F2E41"/>
<path d="M83.2734 79.7441C83.2734 79.7441 90.3472 88.3714 86.8103 88.7309C83.2734 89.0903 80.5225 81.182 80.5225 81.182L83.2734 79.7441Z" fill="#FBBEBE"/>
<path d="M75.0206 41.6404L73.4487 41.2809C73.4487 41.2809 69.1258 46.6729 68.3398 52.4244C67.5538 58.176 66.7678 65.3654 66.7678 65.3654L80.1295 82.6199L84.8454 79.3847L74.6276 63.2085L78.1646 58.5354L75.0206 41.6404Z" fill="white"/>
<path opacity="0.1" d="M76.3621 65.9544L84.6488 79.205L77.1821 64.826L76.3621 65.9544Z" fill="black"/>
<path d="M205 143.224H204.581V4.98503H48.4204V4.60156H205V143.224Z" fill="#1C4A4A"/>
<path d="M153.645 0.766907H108.998V9.0114H153.645V0.766907Z" fill="#1C4A4A"/>
<path d="M72.945 0.766907H55.7568V9.0114H72.945V0.766907Z" fill="#1C4A4A"/>
<path d="M39.6168 46.5909C42.5109 46.5909 44.857 44.4449 44.857 41.7976C44.857 39.1504 42.5109 37.0043 39.6168 37.0043C36.7226 37.0043 34.3765 39.1504 34.3765 41.7976C34.3765 44.4449 36.7226 46.5909 39.6168 46.5909Z" fill="#F6A2BC"/>
<path d="M39.6164 82.8284C45.0574 82.8284 49.4681 78.7938 49.4681 73.817C49.4681 68.8401 45.0574 64.8055 39.6164 64.8055C34.1754 64.8055 29.7646 68.8401 29.7646 73.817C29.7646 78.7938 34.1754 82.8284 39.6164 82.8284Z" fill="#F6A2BC"/>
<path d="M39.6167 120.408C46.9099 120.408 52.8222 115 52.8222 108.329C52.8222 101.658 46.9099 96.2496 39.6167 96.2496C32.3234 96.2496 26.4111 101.658 26.4111 108.329C26.4111 115 32.3234 120.408 39.6167 120.408Z" fill="#F6A2BC"/>
<path d="M44.8569 115.615C46.0145 115.615 46.953 114.756 46.953 113.697C46.953 112.638 46.0145 111.78 44.8569 111.78C43.6992 111.78 42.7607 112.638 42.7607 113.697C42.7607 114.756 43.6992 115.615 44.8569 115.615Z" fill="white"/>
<path d="M36.4725 110.63C37.1671 110.63 37.7302 110.115 37.7302 109.479C37.7302 108.844 37.1671 108.329 36.4725 108.329C35.7779 108.329 35.2148 108.844 35.2148 109.479C35.2148 110.115 35.7779 110.63 36.4725 110.63Z" fill="white"/>
<path d="M39.6166 104.494C40.3111 104.494 40.8742 103.979 40.8742 103.344C40.8742 102.708 40.3111 102.193 39.6166 102.193C38.922 102.193 38.3589 102.708 38.3589 103.344C38.3589 103.979 38.922 104.494 39.6166 104.494Z" fill="white"/>
<path d="M65.7097 88.6946C65.2122 88.6946 64.7259 88.5597 64.3122 88.3069C63.8986 88.0541 63.5762 87.6947 63.3858 87.2743C63.1954 86.8539 63.1456 86.3913 63.2427 85.945C63.3397 85.4987 63.5793 85.0887 63.9311 84.767C64.2828 84.4452 64.731 84.2261 65.2189 84.1373C65.7069 84.0485 66.2126 84.0941 66.6722 84.2682C67.1319 84.4424 67.5247 84.7373 67.8011 85.1156C68.0775 85.494 68.225 85.9388 68.225 86.3939C68.2242 87.0039 67.959 87.5887 67.4874 88.02C67.0159 88.4513 66.3765 88.6939 65.7097 88.6946ZM65.7097 84.4765C65.2951 84.4765 64.8898 84.589 64.5451 84.7997C64.2004 85.0103 63.9318 85.3098 63.7731 85.6601C63.6145 86.0105 63.573 86.396 63.6538 86.7679C63.7347 87.1398 63.9343 87.4815 64.2275 87.7496C64.5206 88.0178 64.8941 88.2004 65.3007 88.2743C65.7073 88.3483 66.1288 88.3103 66.5118 88.1652C66.8948 88.0201 67.2222 87.7744 67.4525 87.4591C67.6828 87.1438 67.8058 86.7731 67.8058 86.3939C67.8052 85.8855 67.5841 85.3982 67.1912 85.0387C66.7982 84.6793 66.2654 84.4771 65.7097 84.4765Z" fill="#2F2E41"/>
<path d="M56.6604 29.1214H52.5225V25.3364H56.6604V29.1214ZM52.8408 28.8303H56.3421V25.6276H52.8408V28.8303Z" fill="#1C4A4A"/>
<path d="M15.0827 56.938L12.2603 54.1701L15.2863 51.5884L18.1087 54.3563L15.0827 56.938ZM12.7101 54.1844L15.0984 56.5265L17.6588 54.342L15.2706 51.9999L12.7101 54.1844Z" fill="#2F2E41"/>
<path d="M90.7618 9.58662C93.6559 9.58662 96.0021 7.44058 96.0021 4.79331C96.0021 2.14604 93.6559 0 90.7618 0C87.8676 0 85.5215 2.14604 85.5215 4.79331C85.5215 7.44058 87.8676 9.58662 90.7618 9.58662Z" fill="#62DFDF"/>
<path d="M90.7618 14.7634H0V15.1468H90.7618V14.7634Z" fill="#1C4A4A"/>
<path d="M16.1402 19.7484C19.0343 19.7484 21.3805 17.6024 21.3805 14.9551C21.3805 12.3078 19.0343 10.1618 16.1402 10.1618C13.2461 10.1618 10.8999 12.3078 10.8999 14.9551C10.8999 17.6024 13.2461 19.7484 16.1402 19.7484Z" fill="#62DFDF"/>
<path d="M160.497 68.4134H109.142V101.2H160.497V68.4134Z" fill="#62DFDF"/>
<path d="M165.527 94.489H113.753V61.3193H165.527V94.489ZM114.172 94.1055H165.108V61.7027H114.172V94.1055Z" fill="#1C4A4A"/>
</svg>
