<svg width="129" height="141" viewBox="0 0 129 141" fill="none" xmlns="http://www.w3.org/2000/svg">
<g clip-path="url(#clip0_153_1495)">
<path d="M69.0612 14.8083C73.5639 26.8656 88.3001 25.0511 98.2997 22.4758C100.697 21.8319 103.153 21.1296 105.317 19.9004C107.481 18.6713 109.293 16.6813 109.995 14.2815C110.755 11.5891 109.878 8.60405 108.358 6.26283C106.954 4.0972 104.908 1.81451 102.744 0.409779C101.808 2.80953 98.4751 2.98512 96.1945 2.98512C92.9783 2.98512 90.0544 1.75598 87.0721 0.878023C84.0313 6.52447e-05 80.7566 -0.175526 77.7158 0.643901C71.5757 2.10716 66.6637 8.36993 69.0612 14.8083Z" fill="#0C0B0B"/>
<path d="M78.2425 95.522C78.067 95.522 78.0086 95.522 77.8916 95.5805L78.2425 95.522Z" fill="#0C0B0B"/>
<path d="M78.2425 95.522C78.067 95.522 78.0086 95.522 77.8916 95.5805L78.2425 95.522Z" fill="#0C0B0B"/>
<path d="M65.2598 36.8156V25.5192C65.2598 15.9202 74.2067 8.07715 85.1419 8.07715C90.5803 8.07715 95.5508 10.0087 99.1764 13.1693C102.802 16.33 105.024 20.6612 105.024 25.4607V36.7571" stroke="#0C0B0B" stroke-width="2" stroke-miterlimit="10"/>
<path d="M105.024 49.0483V62.1006C105.024 71.6996 96.0771 79.5427 85.1419 79.5427C74.2067 79.5427 65.2598 71.6996 65.2598 62.1006V49.0483" stroke="#0C0B0B" stroke-width="2" stroke-miterlimit="10"/>
<path d="M73.3304 53.087C78.9176 53.087 83.4469 48.5535 83.4469 42.9612C83.4469 37.3689 78.9176 32.8354 73.3304 32.8354C67.7432 32.8354 63.2139 37.3689 63.2139 42.9612C63.2139 48.5535 67.7432 53.087 73.3304 53.087Z" stroke="#0C0B0B" stroke-width="2" stroke-miterlimit="10"/>
<path d="M96.8958 53.087C102.483 53.087 107.012 48.5535 107.012 42.9612C107.012 37.3689 102.483 32.8354 96.8958 32.8354C91.3086 32.8354 86.7793 37.3689 86.7793 42.9612C86.7793 48.5535 91.3086 53.087 96.8958 53.087Z" stroke="#0C0B0B" stroke-width="2" stroke-miterlimit="10"/>
<path d="M83.3877 42.6689H86.8963" stroke="#0C0B0B" stroke-width="4" stroke-miterlimit="10"/>
<path d="M93.2705 77.9629H93.329V96.2829" stroke="#0C0B0B" stroke-width="2" stroke-miterlimit="10"/>
<path d="M78.71 96.0484V78.4307" stroke="#0C0B0B" stroke-width="2" stroke-miterlimit="10"/>
<path d="M73.3303 45.3026C74.6221 45.3026 75.6694 44.2544 75.6694 42.9613C75.6694 41.6683 74.6221 40.6201 73.3303 40.6201C72.0384 40.6201 70.9912 41.6683 70.9912 42.9613C70.9912 44.2544 72.0384 45.3026 73.3303 45.3026Z" fill="#0C0B0B"/>
<path d="M96.8957 45.3026C98.1876 45.3026 99.2348 44.2544 99.2348 42.9613C99.2348 41.6683 98.1876 40.6201 96.8957 40.6201C95.6039 40.6201 94.5566 41.6683 94.5566 42.9613C94.5566 44.2544 95.6039 45.3026 96.8957 45.3026Z" fill="#0C0B0B"/>
<path d="M63.9151 46.7661H62.7455C61.459 46.7661 60.2895 47.2929 59.4123 48.1123C58.5937 48.9903 58.0674 50.1609 58.0674 51.4486C58.0674 54.0239 60.1726 56.131 62.7455 56.131H65.0846" stroke="#0C0B0B" stroke-width="2" stroke-miterlimit="10"/>
<path d="M106.311 46.7661H107.481C110.054 46.7661 112.159 48.8732 112.159 51.4486C112.159 52.7362 111.633 53.9068 110.755 54.7848C109.937 55.6042 108.767 56.131 107.481 56.131H105.142" stroke="#0C0B0B" stroke-width="2" stroke-miterlimit="10"/>
<path d="M65.1429 50.0435V52.8529H63.2716C62.5114 52.8529 61.8682 52.2091 61.8682 51.4482C61.8682 51.0385 62.0436 50.6873 62.2775 50.4532C62.5114 50.219 62.8623 50.0435 63.2716 50.0435H65.1429Z" fill="#0C0B0B"/>
<path d="M105.142 52.8529V50.0435H107.013C107.773 50.0435 108.416 50.6873 108.416 51.4482C108.416 51.8579 108.241 52.2091 108.007 52.4432C107.773 52.6773 107.422 52.8529 107.013 52.8529H105.142Z" fill="#0C0B0B"/>
<path d="M85.1427 52.6191C85.1427 52.6191 82.2188 57.3016 86.897 56.131" stroke="#0C0B0B" stroke-width="2" stroke-miterlimit="10" stroke-linecap="round"/>
<path d="M79.8799 66.1396C79.8799 66.1396 84.558 71.9342 90.9905 66.1396" stroke="#0C0B0B" stroke-width="2" stroke-miterlimit="10" stroke-linecap="round"/>
<path d="M68.7686 30.9626C68.7686 30.9626 71.9848 27.7434 77.5401 30.3773" stroke="#0C0B0B" stroke-width="3" stroke-miterlimit="10" stroke-linecap="round"/>
<path d="M101.516 30.9626C101.516 30.9626 98.2994 27.7434 92.7441 30.3773" stroke="#0C0B0B" stroke-width="3" stroke-miterlimit="10" stroke-linecap="round"/>
<path d="M65.1433 24.2903C65.1433 24.2903 57.0735 18.0275 60.5821 10.4186C64.0907 2.8096 75.2013 6.90674 75.2013 6.90674C75.2013 6.90674 79.6456 25.8706 65.1433 24.2903Z" fill="#0C0B0B"/>
<path d="M25.0279 71.0567C24.3262 68.774 23.3321 67.662 22.8058 64.3257C21.6947 57.6533 22.1041 51.2734 19.3557 51.5075C18.2446 51.6246 17.8937 52.7952 17.9522 53.4391L18.8294 63.9745C18.4785 65.2037 17.8353 64.7354 17.8353 64.7354C17.8353 64.7354 15.5547 55.3706 15.2623 53.6732C14.9699 52.0343 14.1512 51.0978 13.0401 51.2149C11.1104 51.3905 11.8706 53.7317 12.046 54.6097L14.0927 65.9646C14.2682 67.0767 13.0986 66.7255 13.0986 66.7255L8.53743 55.3706C8.01114 54.1414 7.01703 54.4341 7.01703 54.4341C5.20425 54.8438 5.90597 56.4826 5.90597 56.4826L9.82392 68.5399C9.82392 68.5985 9.82392 68.657 9.82392 68.7155C9.8824 69.3594 9.06372 69.7105 8.71286 69.1252C7.48485 67.2523 5.08729 64.2672 3.09908 63.0966C2.10497 62.5113 1.40325 62.6283 0.993913 62.921C0.584575 63.2137 0.526098 63.7404 0.818482 64.1501L8.12809 74.7442C9.82392 85.982 16.6657 87.3282 16.6657 87.3282L20.7591 103.366L26.7822 128.651L27.5424 131.87C28.2441 134.972 31.051 137.196 34.2088 137.196H37.425C39.7056 137.196 41.2845 134.972 40.5828 132.865L26.022 88.4988L25.3788 84.6358C26.7822 83.0555 27.7178 79.7193 28.1857 77.3195C28.478 76.0318 28.595 74.6856 28.478 73.398C28.2441 70.1788 30.4078 64.3843 30.4078 64.3843C30.2324 63.2722 28.1272 64.2087 28.1272 64.2087C25.7881 65.0281 25.2033 68.774 25.0279 70.8226C24.9694 71.7006 24.5601 72.4615 23.9753 73.0468C20.4667 76.5001 20.1743 80.3631 20.1743 80.3631" stroke="#0C0B0B" stroke-width="2" stroke-miterlimit="10"/>
<path d="M15.2036 53.731C14.9113 52.0922 14.385 50.8631 12.9815 51.2728C11.1103 51.7995 11.812 53.7896 11.9874 54.6675" stroke="#0C0B0B" stroke-width="2" stroke-miterlimit="10"/>
<path d="M129 140.415V141H116.252L113.562 126.075V141H58.3597V132.513C58.3597 130.465 58.3597 128.416 58.4182 126.368C57.1902 127.363 55.8452 128.182 54.2663 129.06L42.0447 137.254C41.9862 137.313 41.9277 137.313 41.8692 137.371C41.343 137.664 40.7582 137.84 40.1149 137.84L37.5734 137.936C37.5734 137.936 40.2904 136.903 40.9336 134.328L36.5479 119.695C42.8049 114.486 52.9214 99.4435 72.3357 96.3414C73.1544 96.1658 74.0315 95.9902 74.9672 95.8732C75.8443 95.7561 76.7215 95.639 77.7156 95.5805L78.3588 95.522V95.639L78.008 95.6976C78.1249 95.6976 78.1834 95.6976 78.3003 95.639H78.3588C78.4758 95.639 78.5927 95.639 78.7097 95.5805H78.7682L79.3529 95.522V97.7461C79.3529 98.0388 79.4699 98.39 79.7623 98.6826C80.6394 99.6776 82.6276 100.439 85.0252 100.614C85.4345 100.673 85.8439 100.673 86.2532 100.673C86.3117 100.673 86.3702 100.673 86.3702 100.673H86.4286C88.7677 100.614 90.9313 99.9703 92.0424 99.0338C92.3933 98.7412 92.7441 98.3314 92.7441 97.7461V95.6976L93.3289 95.8146H93.4459C93.6213 95.8146 93.7382 95.8732 93.9137 95.8732V95.6976L94.6739 95.8146C116.135 98.4485 129 115.13 129 140.415Z" fill="#1C4A4A"/>
<path d="M41.986 137.195L41.8105 137.312C41.869 137.312 41.9275 137.254 41.986 137.195Z" fill="#0C0B0B"/>
</g>
<defs>
<clipPath id="clip0_153_1495">
<rect width="129" height="141" fill="white"/>
</clipPath>
</defs>
</svg>
