<svg width="210" height="127" viewBox="0 0 210 127" fill="none" xmlns="http://www.w3.org/2000/svg">
<path d="M20.0281 72.4556L22.7191 79.8491L19.1802 81.1371L16.4892 73.7436L5.32331 64.6374L8.44121 63.5026C8.74818 63.3909 9.0165 63.3776 9.24618 63.4629C9.48462 63.5449 9.70674 63.6776 9.91252 63.861L15.7115 68.9463C16.0505 69.25 16.3568 69.5457 16.6304 69.8335C16.9008 70.1125 17.1564 70.3919 17.3973 70.6718C17.3901 70.297 17.3959 69.9174 17.4149 69.5331C17.4395 69.1367 17.4857 68.7177 17.5533 68.2759L18.7005 60.6624C18.7268 60.4343 18.806 60.2019 18.9383 59.965C19.0706 59.7281 19.2859 59.5554 19.5841 59.4469L22.7151 58.3073L20.0281 72.4556ZM29.9571 61.6904C30.9657 61.3233 31.9369 61.1536 32.8707 61.1812C33.8132 61.2057 34.6824 61.4107 35.4783 61.7964C36.2743 62.1822 36.9865 62.7473 37.6151 63.4919C38.2437 64.2365 38.7511 65.1394 39.1373 66.2006C39.5268 67.2706 39.72 68.2928 39.7171 69.2672C39.7142 70.2417 39.5335 71.1368 39.1749 71.9526C38.8163 72.7685 38.2839 73.4887 37.5775 74.1133C36.88 74.7347 36.0269 75.2289 35.0183 75.596C34.0097 75.9631 33.0342 76.1344 32.0916 76.11C31.1491 76.0855 30.2739 75.8777 29.466 75.4864C28.6669 75.0919 27.9487 74.524 27.3113 73.7826C26.6827 73.038 26.1737 72.1307 25.7843 71.0607C25.398 69.9995 25.2064 68.9817 25.2093 68.0072C25.2209 67.0296 25.4077 66.1373 25.7694 65.3302C26.14 64.5199 26.6784 63.8025 27.3847 63.1779C28.0911 62.5534 28.9485 62.0575 29.9571 61.6904ZM34.1086 73.0964C35.2312 72.6878 35.9227 72.009 36.1832 71.06C36.4524 70.1079 36.3221 68.9038 35.7922 67.4479C35.2623 65.992 34.5866 64.9815 33.7651 64.4164C32.9524 63.8481 31.9847 63.7682 30.8621 64.1768C29.7219 64.5918 29.0204 65.2842 28.7576 66.2539C28.4915 67.2148 28.6219 68.4189 29.1486 69.866C29.6753 71.3131 30.3494 72.3193 31.1709 72.8844C31.9892 73.4407 32.9684 73.5114 34.1086 73.0964ZM42.199 57.4731L45.321 66.0506C45.6211 66.875 46.0427 67.4466 46.5858 67.7654C47.1345 68.0723 47.7904 68.0868 48.5534 67.8091C49.1147 67.6048 49.5962 67.2905 49.998 66.8662C50.3966 66.4331 50.7353 65.9174 51.0142 65.3193L47.4613 55.5578L50.7108 54.3751L55.6236 67.8728L53.637 68.5959C53.2161 68.7491 52.868 68.6523 52.5928 68.3055L51.9765 67.3081C51.798 67.691 51.6027 68.055 51.3907 68.4004C51.1755 68.7369 50.9272 69.0508 50.6458 69.3419C50.37 69.6211 50.0507 69.8763 49.688 70.1077C49.3372 70.3446 48.9381 70.5445 48.4908 70.7073C47.7541 70.9754 47.056 71.0905 46.3966 71.0524C45.7427 71.0023 45.1398 70.8195 44.5879 70.5039C44.036 70.1883 43.5459 69.7559 43.1175 69.2066C42.6947 68.6453 42.3461 67.9876 42.0715 67.2333L38.9496 58.6558L42.199 57.4731ZM69.7921 50.663C69.7403 50.8209 69.6789 50.9525 69.608 51.0578C69.5458 51.1599 69.427 51.2429 69.2516 51.3067C69.085 51.3674 68.9052 51.3782 68.7122 51.3392C68.516 51.2914 68.2859 51.246 68.022 51.203C67.7548 51.1512 67.4502 51.133 67.1081 51.1482C66.7716 51.1515 66.3797 51.2346 65.9325 51.3974C65.3624 51.6049 64.9008 51.8921 64.5476 52.259C64.1913 52.6171 63.9386 53.0418 63.7897 53.5331C63.6495 54.0211 63.6098 54.5669 63.6705 55.1706C63.7281 55.7654 63.883 56.4093 64.1352 57.1021C64.397 57.8213 64.7045 58.4344 65.0579 58.9415C65.4201 59.4453 65.8161 59.8375 66.246 60.1181C66.6727 60.3899 67.1289 60.5516 67.6145 60.6033C68.0969 60.6462 68.5969 60.5735 69.1143 60.3851C69.6318 60.1968 70.026 59.9838 70.2971 59.7461C70.5737 59.4964 70.7945 59.2571 70.9595 59.0282C71.1213 58.7905 71.2588 58.5816 71.372 58.4013C71.4907 58.2091 71.651 58.0763 71.8527 58.0029C72.1158 57.9071 72.3499 57.9362 72.5548 58.09L73.9198 58.9341C73.7135 59.4859 73.4525 59.9832 73.1368 60.4258C72.818 60.8597 72.4625 61.2473 72.0703 61.5887C71.6836 61.9182 71.2619 62.2058 70.805 62.4515C70.3482 62.6972 69.883 62.9063 69.4094 63.0787C68.5762 63.3819 67.7354 63.5142 66.8869 63.4753C66.0353 63.4277 65.2247 63.2063 64.455 62.811C63.6942 62.4125 62.9951 61.8426 62.3578 61.1012C61.726 60.3479 61.209 59.4186 60.8068 58.3136C60.4461 57.3225 60.2528 56.3549 60.227 55.4108C60.2068 54.4547 60.3613 53.5692 60.6903 52.7541C61.0162 51.9303 61.5232 51.1946 62.2111 50.5469C62.8991 49.8992 63.7737 49.3822 64.8349 48.9959C65.8435 48.6288 66.784 48.4703 67.6564 48.5203C68.5375 48.567 69.3908 48.7829 70.2162 49.1678L69.7921 50.663ZM87.2967 56.3447L85.8364 56.8762C85.5295 56.988 85.2723 57.0319 85.065 57.008C84.8545 56.9754 84.6543 56.8347 84.4644 56.586L83.8255 55.731C83.5951 56.1624 83.3564 56.5572 83.1093 56.9153C82.8678 57.2615 82.6004 57.5773 82.307 57.8629C82.0137 58.1484 81.684 58.4025 81.3181 58.6251C80.9521 58.8477 80.528 59.0467 80.0456 59.2223C79.4755 59.4298 78.9222 59.5468 78.3855 59.5732C77.8457 59.591 77.3445 59.5102 76.882 59.3309C76.4282 59.1484 76.0218 58.8643 75.6629 58.4784C75.3039 58.0926 75.0143 57.5971 74.7941 56.9919C74.6089 56.4832 74.5585 55.9354 74.6429 55.3485C74.7328 54.7497 75.0173 54.1396 75.4964 53.5182C75.9722 52.8882 76.6797 52.2532 77.6189 51.6134C78.558 50.9736 79.7886 50.3569 81.3107 49.7632L81.0234 48.9738C80.6946 48.0705 80.259 47.4741 79.7167 47.1848C79.18 46.8836 78.5476 46.8654 77.8197 47.1304C77.2935 47.3219 76.8773 47.5429 76.5712 47.7934C76.265 48.0439 76.0091 48.2959 75.8035 48.5495C75.6034 48.7912 75.4161 49.0134 75.2415 49.2159C75.0669 49.4185 74.8481 49.5677 74.585 49.6635C74.3657 49.7433 74.1564 49.7549 73.957 49.6984C73.7577 49.6418 73.5794 49.5478 73.4223 49.4162L72.452 48.5924C73.4873 46.6066 75.1012 45.2146 77.2938 44.4166C78.0831 44.1293 78.8327 44.0055 79.5424 44.0451C80.2576 44.0728 80.9147 44.2409 81.5137 44.5493C82.1094 44.8489 82.6334 45.279 83.0857 45.8394C83.5468 46.3967 83.9162 47.0568 84.1939 47.8198L87.2967 56.3447ZM80.2446 56.6171C80.5779 56.4958 80.8737 56.3534 81.132 56.1899C81.3903 56.0263 81.6199 55.8385 81.8208 55.6263C82.0304 55.4109 82.2173 55.1741 82.3815 54.9157C82.5513 54.6453 82.7099 54.3442 82.8573 54.0125L82.0289 51.7365C81.0977 52.1251 80.3343 52.4973 79.7387 52.8532C79.1487 53.197 78.6943 53.5313 78.3755 53.8559C78.0566 54.1805 77.8585 54.496 77.7813 54.8022C77.7128 55.1052 77.7312 55.4014 77.8366 55.6909C78.0441 56.2609 78.3591 56.6081 78.7818 56.7324C79.2132 56.8535 79.7008 56.8151 80.2446 56.6171ZM90.4919 55.1818L85.5791 41.684L87.5656 40.961C87.9866 40.8078 88.3347 40.9046 88.6099 41.2514L89.2214 42.2356C89.3912 41.856 89.5836 41.4979 89.7988 41.1613C90.0228 40.8215 90.2711 40.5077 90.5437 40.2197C90.8251 39.9286 91.1428 39.669 91.4968 39.4408C91.8508 39.2126 92.2558 39.0156 92.7118 38.8496C93.4486 38.5814 94.1482 38.4708 94.8109 38.5176C95.4704 38.5557 96.0717 38.7342 96.6148 39.053C97.1635 39.3598 97.6492 39.7938 98.072 40.3551C98.5004 40.9044 98.8518 41.5561 99.1264 42.3104L102.253 50.9011L99.0036 52.0838L95.8769 43.4931C95.5768 42.6687 95.1524 42.103 94.6037 41.7962C94.0606 41.4774 93.4075 41.4569 92.6445 41.7346C92.0832 41.9389 91.6033 42.2576 91.2047 42.6907C90.8061 43.1238 90.4674 43.6394 90.1885 44.2376L93.7414 53.9991L90.4919 55.1818ZM111.307 32.0816C112.315 31.7145 113.286 31.5448 114.22 31.5724C115.163 31.5969 116.032 31.8019 116.828 32.1877C117.624 32.5734 118.336 33.1385 118.965 33.8831C119.593 34.6277 120.101 35.5306 120.487 36.5918C120.876 37.6618 121.07 38.684 121.067 39.6584C121.064 40.6329 120.883 41.528 120.524 42.3439C120.166 43.1597 119.633 43.8799 118.927 44.5045C118.229 45.1259 117.376 45.6201 116.368 45.9872C115.359 46.3543 114.384 46.5256 113.441 46.5012C112.499 46.4768 111.623 46.2689 110.815 45.8776C110.016 45.4831 109.298 44.9152 108.661 44.1738C108.032 43.4292 107.523 42.5219 107.134 41.4519C106.748 40.3907 106.556 39.3729 106.559 38.3984C106.57 37.4208 106.757 36.5285 107.119 35.7214C107.489 34.9111 108.028 34.1937 108.734 33.5691C109.441 32.9446 110.298 32.4487 111.307 32.0816ZM115.458 43.4876C116.581 43.079 117.272 42.4002 117.533 41.4512C117.802 40.4991 117.672 39.295 117.142 37.8391C116.612 36.3832 115.936 35.3727 115.115 34.8076C114.302 34.2393 113.334 34.1595 112.212 34.5681C111.071 34.983 110.37 35.6754 110.107 36.6451C109.841 37.6061 109.971 38.8101 110.498 40.2572C111.025 41.7043 111.699 42.7105 112.52 43.2756C113.339 43.8319 114.318 43.9026 115.458 43.4876ZM126.067 42.2335L122.045 31.1827L120.807 31.4247C120.537 31.4734 120.299 31.4607 120.093 31.3867C119.896 31.3094 119.754 31.1523 119.668 30.9155L119.184 29.5868L121.197 28.8542L120.833 27.8543C120.552 27.0825 120.414 26.3482 120.419 25.6513C120.432 24.9511 120.576 24.308 120.849 23.7218C121.131 23.1325 121.542 22.6104 122.082 22.1558C122.621 21.7011 123.281 21.3317 124.062 21.0476C124.685 20.8209 125.294 20.6936 125.89 20.6655L126.418 22.3207C126.493 22.5815 126.432 22.7824 126.235 22.9236C126.038 23.0648 125.795 23.1881 125.505 23.2934C125.119 23.4339 124.789 23.6038 124.514 23.8033C124.244 23.9907 124.043 24.228 123.909 24.5151C123.772 24.7935 123.708 25.1244 123.719 25.5079C123.735 25.8795 123.834 26.3153 124.016 26.8152L124.341 27.7098L127.854 26.4313L128.697 28.7467L125.289 29.9869L129.316 41.0508L126.067 42.2335ZM135.291 38.8761L131.269 27.8253L130.031 28.0673C129.761 28.116 129.523 28.1033 129.317 28.0292C129.12 27.952 128.979 27.7949 128.892 27.5581L128.409 26.2294L130.422 25.4968L130.058 24.4969C129.777 23.7251 129.639 22.9908 129.643 22.2938C129.657 21.5937 129.8 20.9506 130.073 20.3644C130.355 19.775 130.766 19.253 131.306 18.7983C131.846 18.3437 132.506 17.9743 133.286 17.6902C133.909 17.4635 134.518 17.3362 135.114 17.3081L135.642 18.9633C135.717 19.2241 135.656 19.425 135.459 19.5662C135.262 19.7074 135.019 19.8307 134.73 19.936C134.344 20.0765 134.013 20.2464 133.738 20.4459C133.469 20.6333 133.267 20.8706 133.133 21.1577C132.996 21.436 132.933 21.767 132.943 22.1505C132.959 22.5221 133.058 22.9579 133.24 23.4578L133.566 24.3524L137.078 23.0739L137.921 25.3893L134.514 26.6295L138.541 37.6934L135.291 38.8761ZM144.526 19.9909C145.376 19.6813 146.206 19.5331 147.016 19.5464C147.834 19.5566 148.597 19.7306 149.306 20.0685C150.012 20.3976 150.649 20.891 151.216 21.5487C151.78 22.1976 152.239 23.0088 152.593 23.9823C152.683 24.2279 152.744 24.4388 152.779 24.615C152.819 24.7793 152.826 24.9208 152.799 25.0396C152.779 25.1465 152.728 25.2394 152.647 25.3184C152.564 25.3885 152.447 25.4508 152.298 25.505L143.958 28.5408C144.558 29.8914 145.301 30.7731 146.187 31.1859C147.072 31.5987 148.05 31.6104 149.119 31.221C149.646 31.0294 150.075 30.8036 150.407 30.5436C150.749 30.2803 151.033 30.0231 151.259 29.7718C151.494 29.5174 151.695 29.2905 151.86 29.0911C152.035 28.8885 152.223 28.7505 152.425 28.6771C152.556 28.6292 152.68 28.614 152.796 28.6315C152.911 28.649 153.022 28.6932 153.127 28.7642L154.505 29.6034C154.299 30.1553 154.025 30.6573 153.683 31.1096C153.337 31.553 152.951 31.9518 152.524 32.306C152.102 32.6482 151.65 32.947 151.167 33.2023C150.692 33.4544 150.218 33.6667 149.745 33.839C148.806 34.1806 147.878 34.3447 146.959 34.3315C146.037 34.3094 145.168 34.1043 144.351 33.7162C143.532 33.3194 142.788 32.7359 142.12 31.9658C141.449 31.1869 140.898 30.2055 140.467 29.0215C140.132 28.1006 139.967 27.1824 139.971 26.267C139.973 25.3428 140.141 24.482 140.477 23.6845C140.818 22.875 141.323 22.1496 141.994 21.5083C142.673 20.8638 143.517 20.358 144.526 19.9909ZM145.439 22.2955C144.492 22.6403 143.848 23.1775 143.508 23.9073C143.167 24.637 143.101 25.5201 143.31 26.5567L149.414 24.3349C149.261 23.9139 149.06 23.54 148.812 23.2132C148.561 22.8775 148.266 22.6125 147.927 22.418C147.588 22.2235 147.21 22.1128 146.793 22.0858C146.373 22.0501 145.921 22.12 145.439 22.2955ZM157.992 30.6138L153.079 17.116L154.987 16.4217C155.32 16.3004 155.575 16.2772 155.751 16.3521C155.927 16.427 156.092 16.6056 156.244 16.8878L157.035 18.4473C157.214 17.4386 157.54 16.5749 158.014 15.8563C158.487 15.1377 159.128 14.6315 159.934 14.3379C160.601 14.0953 161.209 14.0476 161.76 14.195L162.224 16.782C162.256 16.9495 162.24 17.0842 162.178 17.1863C162.113 17.2796 162.005 17.3534 161.856 17.4077C161.725 17.4556 161.534 17.4903 161.283 17.5119C161.033 17.5335 160.719 17.613 160.342 17.7502C159.667 17.996 159.157 18.3953 158.811 18.948C158.463 19.4919 158.253 20.1841 158.182 21.0246L161.241 29.4311L157.992 30.6138Z" fill="#F6A2BC"/>
<circle cx="11.2937" cy="107.038" r="8.8421" transform="rotate(2.4415 11.2937 107.038)" stroke="#1C4A4A" stroke-width="4"/>
<path d="M209.369 42.7754L188.728 32.4161L190.077 55.4707L209.369 42.7754ZM191.121 41.8466C163.979 45.7346 128.393 59.9346 109.376 88.9364L112.721 91.1298C130.862 63.464 165.145 49.6084 191.688 45.8061L191.121 41.8466ZM109.376 88.9364C106.412 93.4552 104.692 97.2848 104.107 100.468C103.516 103.691 104.067 106.464 105.936 108.439C107.741 110.345 110.415 111.115 113.231 111.215C116.079 111.317 119.351 110.749 122.733 109.674C129.5 107.523 137.059 103.227 143.14 97.4366C149.213 91.6522 153.976 84.2129 154.775 75.7535L150.793 75.3771C150.114 82.5604 146.027 89.1632 140.381 94.54C134.742 99.9105 127.712 103.894 121.521 105.862C118.424 106.847 115.625 107.298 113.373 107.218C111.089 107.137 109.633 106.525 108.841 105.689C108.113 104.921 107.601 103.591 108.042 101.19C108.49 98.7501 109.897 95.4357 112.721 91.1298L109.376 88.9364ZM154.775 75.7535C155.173 71.5436 154.573 67.7857 152.927 64.5989C151.276 61.4027 148.647 58.9224 145.23 57.162C138.477 53.683 128.592 52.9747 116.445 54.8574C92.0704 58.6354 57.3721 73.0386 16.9548 99.56L19.1493 102.904C59.3301 76.5381 93.4764 62.4652 117.058 58.8102C128.888 56.9766 137.759 57.8126 143.398 60.7178C146.177 62.1495 148.152 64.0712 149.373 66.4343C150.598 68.8068 151.134 71.7657 150.793 75.3771L154.775 75.7535Z" fill="#1C4A4A"/>
</svg>
