<svg width="246" height="141" viewBox="0 0 246 141" fill="none" xmlns="http://www.w3.org/2000/svg">
<g clip-path="url(#clip0_38_276)">
<path d="M53.3012 125.159C60.3668 125.159 66.0946 119.445 66.0946 112.397C66.0946 105.349 60.3668 99.6351 53.3012 99.6351C46.2356 99.6351 40.5078 105.349 40.5078 112.397C40.5078 119.445 46.2356 125.159 53.3012 125.159Z" fill="#F2F2F2"/>
<path d="M55.3818 123.292C62.4474 123.292 68.1752 117.578 68.1752 110.53C68.1752 103.481 62.4474 97.7676 55.3818 97.7676C48.3162 97.7676 42.5884 103.481 42.5884 110.53C42.5884 117.578 48.3162 123.292 55.3818 123.292Z" fill="#62DFDF"/>
<path d="M223.973 96.4086H65.6846V96.8394H223.973V96.4086Z" fill="#3F3D56"/>
<path d="M147.663 4.01799H91.4801V2.86285H66.0047V4.01799H9.59038C9.09131 4.01799 8.59713 4.11605 8.13605 4.30656C7.67497 4.49708 7.25603 4.77633 6.90313 5.12836C6.55024 5.48039 6.27031 5.8983 6.07932 6.35825C5.88834 6.8182 5.79004 7.31117 5.79004 7.80902V84.5519C5.79004 85.5574 6.19043 86.5216 6.90313 87.2326C7.61583 87.9436 8.58246 88.343 9.59038 88.343H147.663C148.671 88.343 149.637 87.9436 150.35 87.2326C151.063 86.5216 151.463 85.5574 151.463 84.5519V7.80902C151.463 7.31117 151.365 6.8182 151.174 6.35825C150.983 5.8983 150.703 5.48039 150.35 5.12836C149.997 4.77633 149.578 4.49708 149.117 4.30656C148.656 4.11605 148.162 4.01799 147.663 4.01799Z" fill="#3F3D56"/>
<path d="M146.368 10.7178H10.8848V86.9568H146.368V10.7178Z" fill="#62DFDF"/>
<path d="M78.5107 8.63854C79.2781 8.63854 79.9002 8.01793 79.9002 7.25238C79.9002 6.48682 79.2781 5.86621 78.5107 5.86621C77.7432 5.86621 77.1211 6.48682 77.1211 7.25238C77.1211 8.01793 77.7432 8.63854 78.5107 8.63854Z" fill="#62DFDF"/>
<path opacity="0.1" d="M107.622 86.9569H10.8848V10.7179L107.622 86.9569Z" fill="black"/>
<path d="M32.0841 81.2518C39.2765 81.2518 45.1071 75.4355 45.1071 68.2607C45.1071 61.0859 39.2765 55.2695 32.0841 55.2695C24.8917 55.2695 19.061 61.0859 19.061 68.2607C19.061 75.4355 24.8917 81.2518 32.0841 81.2518Z" fill="#F6A2BC"/>
<path d="M122.778 51.8341H110.123V54.4721H122.778V51.8341Z" fill="#3F3D56"/>
<path d="M138.078 31.2956H94.8223V32.4262H138.078V31.2956Z" fill="#3F3D56"/>
<path d="M138.078 34.8757H94.8223V36.0063H138.078V34.8757Z" fill="#3F3D56"/>
<path d="M138.078 38.4558H94.8223V39.5864H138.078V38.4558Z" fill="#3F3D56"/>
<path d="M138.078 42.0359H94.8223V43.1665H138.078V42.0359Z" fill="#3F3D56"/>
<path d="M138.078 45.616H94.8223V46.7466H138.078V45.616Z" fill="#3F3D56"/>
<path d="M138.078 12.2645H132.789V17.5405H138.078V12.2645Z" fill="#F2F2F2"/>
<path d="M140.534 19.99H134.111V13.5835H140.534V19.99ZM134.391 19.7115H140.254V13.8621H134.391V19.7115Z" fill="#3F3D56"/>
<path d="M155.267 85.5706H142.045V84.6203C142.045 84.5956 142.04 84.5711 142.03 84.5482C142.021 84.5253 142.007 84.5046 141.99 84.4871C141.972 84.4696 141.951 84.4557 141.928 84.4462C141.905 84.4368 141.881 84.4319 141.856 84.4319H137.323C137.298 84.4319 137.273 84.4368 137.25 84.4462C137.227 84.4557 137.207 84.4696 137.189 84.4871C137.171 84.5046 137.158 84.5253 137.148 84.5482C137.139 84.5711 137.134 84.5956 137.134 84.6203V85.5706H134.3V84.6203C134.3 84.5956 134.295 84.5711 134.286 84.5482C134.276 84.5253 134.263 84.5046 134.245 84.4871C134.227 84.4696 134.207 84.4557 134.184 84.4462C134.161 84.4368 134.136 84.4319 134.111 84.4319H129.578C129.553 84.4319 129.529 84.4368 129.506 84.4462C129.483 84.4557 129.462 84.4696 129.445 84.4871C129.427 84.5046 129.413 84.5253 129.404 84.5482C129.394 84.5711 129.389 84.5956 129.389 84.6203V85.5706H126.556V84.6203C126.556 84.5956 126.551 84.5711 126.542 84.5482C126.532 84.5253 126.518 84.5046 126.501 84.4871C126.483 84.4696 126.462 84.4557 126.439 84.4462C126.416 84.4368 126.392 84.4319 126.367 84.4319H121.834C121.809 84.4319 121.784 84.4368 121.761 84.4462C121.738 84.4557 121.718 84.4696 121.7 84.4871C121.683 84.5046 121.669 84.5253 121.659 84.5482C121.65 84.5711 121.645 84.5956 121.645 84.6203V85.5706H118.811V84.6203C118.811 84.5956 118.807 84.5711 118.797 84.5482C118.788 84.5253 118.774 84.5046 118.756 84.4871C118.739 84.4696 118.718 84.4557 118.695 84.4462C118.672 84.4368 118.647 84.4319 118.623 84.4319H114.089C114.064 84.4319 114.04 84.4368 114.017 84.4462C113.994 84.4557 113.973 84.4696 113.956 84.4871C113.938 84.5046 113.924 84.5253 113.915 84.5482C113.905 84.5711 113.9 84.5956 113.9 84.6203V85.5706H111.067V84.6203C111.067 84.5956 111.062 84.5711 111.053 84.5482C111.043 84.5253 111.029 84.5046 111.012 84.4871C110.994 84.4696 110.973 84.4557 110.95 84.4462C110.927 84.4368 110.903 84.4319 110.878 84.4319H106.345C106.32 84.4319 106.295 84.4368 106.272 84.4462C106.25 84.4557 106.229 84.4696 106.211 84.4871C106.194 84.5046 106.18 84.5253 106.17 84.5482C106.161 84.5711 106.156 84.5956 106.156 84.6203V85.5706H103.323V84.6203C103.323 84.5956 103.318 84.5711 103.308 84.5482C103.299 84.5253 103.285 84.5046 103.267 84.4871C103.25 84.4696 103.229 84.4557 103.206 84.4462C103.183 84.4368 103.158 84.4319 103.134 84.4319H98.6003C98.5755 84.4319 98.5509 84.4368 98.528 84.4462C98.5051 84.4557 98.4842 84.4696 98.4667 84.4871C98.4492 84.5046 98.4352 84.5253 98.4258 84.5482C98.4163 84.5711 98.4114 84.5956 98.4114 84.6203V85.5706H95.578V84.6203C95.578 84.5956 95.5731 84.5711 95.5637 84.5482C95.5542 84.5253 95.5402 84.5046 95.5227 84.4871C95.5052 84.4696 95.4843 84.4557 95.4614 84.4462C95.4385 84.4368 95.4139 84.4319 95.3891 84.4319H59.8779C59.8531 84.4319 59.8286 84.4368 59.8057 84.4462C59.7827 84.4557 59.7619 84.4696 59.7444 84.4871C59.7268 84.5046 59.7129 84.5253 59.7034 84.5482C59.6939 84.5711 59.689 84.5956 59.689 84.6203V85.5706H56.8557V84.6203C56.8557 84.5956 56.8508 84.5711 56.8413 84.5482C56.8318 84.5253 56.8179 84.5046 56.8004 84.4871C56.7828 84.4696 56.762 84.4557 56.7391 84.4462C56.7162 84.4368 56.6916 84.4319 56.6668 84.4319H52.1335C52.1087 84.4319 52.0841 84.4368 52.0612 84.4462C52.0383 84.4557 52.0174 84.4696 51.9999 84.4871C51.9824 84.5046 51.9685 84.5253 51.959 84.5482C51.9495 84.5711 51.9446 84.5956 51.9446 84.6203V85.5706H49.1112V84.6203C49.1112 84.5956 49.1064 84.5711 49.0969 84.5482C49.0874 84.5253 49.0735 84.5046 49.0559 84.4871C49.0384 84.4696 49.0176 84.4557 48.9946 84.4462C48.9717 84.4368 48.9472 84.4319 48.9223 84.4319H44.389C44.3642 84.4319 44.3396 84.4368 44.3167 84.4462C44.2938 84.4557 44.273 84.4696 44.2554 84.4871C44.2379 84.5046 44.224 84.5253 44.2145 84.5482C44.205 84.5711 44.2001 84.5956 44.2001 84.6203V85.5706H41.3668V84.6203C41.3668 84.5956 41.3619 84.5711 41.3524 84.5482C41.3429 84.5253 41.329 84.5046 41.3115 84.4871C41.2939 84.4696 41.2731 84.4557 41.2502 84.4462C41.2273 84.4368 41.2027 84.4319 41.1779 84.4319H36.6445C36.6197 84.4319 36.5952 84.4368 36.5723 84.4462C36.5493 84.4557 36.5285 84.4696 36.511 84.4871C36.4934 84.5046 36.4795 84.5253 36.47 84.5482C36.4605 84.5711 36.4557 84.5956 36.4557 84.6203V85.5706H33.6223V84.6203C33.6223 84.5956 33.6174 84.5711 33.6079 84.5482C33.5984 84.5253 33.5845 84.5046 33.567 84.4871C33.5495 84.4696 33.5286 84.4557 33.5057 84.4462C33.4828 84.4368 33.4582 84.4319 33.4334 84.4319H28.9001C28.8753 84.4319 28.8507 84.4368 28.8278 84.4462C28.8049 84.4557 28.784 84.4696 28.7665 84.4871C28.749 84.5046 28.7351 84.5253 28.7256 84.5482C28.7161 84.5711 28.7112 84.5956 28.7112 84.6203V85.5706H25.8778V84.6203C25.8778 84.5956 25.873 84.5711 25.8635 84.5482C25.854 84.5253 25.8401 84.5046 25.8225 84.4871C25.805 84.4696 25.7842 84.4557 25.7612 84.4462C25.7383 84.4368 25.7138 84.4319 25.689 84.4319H21.1556C21.1308 84.4319 21.1062 84.4368 21.0833 84.4462C21.0604 84.4557 21.0396 84.4696 21.022 84.4871C21.0045 84.5046 20.9906 84.5253 20.9811 84.5482C20.9716 84.5711 20.9667 84.5956 20.9667 84.6203V85.5706H18.1334V84.6203C18.1334 84.5956 18.1285 84.5711 18.119 84.5482C18.1095 84.5253 18.0956 84.5046 18.0781 84.4871C18.0605 84.4696 18.0397 84.4557 18.0168 84.4462C17.9939 84.4368 17.9693 84.4319 17.9445 84.4319H13.4111C13.3863 84.4319 13.3618 84.4368 13.3389 84.4462C13.3159 84.4557 13.2951 84.4696 13.2776 84.4871C13.26 84.5046 13.2461 84.5253 13.2366 84.5482C13.2271 84.5711 13.2223 84.5956 13.2223 84.6203V85.5706H4.53335C3.33103 85.5706 2.17795 86.0471 1.32779 86.8952C0.477621 87.7433 1.14545e-06 88.8935 0 90.0929V92.1377C3.43635e-06 93.3371 0.477624 94.4873 1.32779 95.3354C2.17796 96.1835 3.33103 96.6599 4.53335 96.6599H155.267C156.469 96.6599 157.622 96.1835 158.473 95.3354C159.323 94.4873 159.8 93.3371 159.8 92.1377V90.0929C159.8 88.8935 159.323 87.7433 158.473 86.8952C157.622 86.0471 156.469 85.5706 155.267 85.5706Z" fill="#3F3D56"/>
<path d="M35.2362 76.3748C31.9902 76.3748 28.8171 75.4146 26.1182 73.6157C23.4193 71.8167 21.3157 69.2598 20.0735 66.2683C18.8313 63.2767 18.5063 59.9849 19.1396 56.8091C19.7728 53.6333 21.3359 50.7161 23.6312 48.4265C25.9264 46.1369 28.8507 44.5776 32.0344 43.9459C35.218 43.3142 38.5179 43.6384 41.5167 44.8776C44.5156 46.1167 47.0788 48.2151 48.8822 50.9074C50.6856 53.5998 51.6481 56.7651 51.6481 60.0031C51.6432 64.3436 49.9125 68.505 46.8357 71.5742C43.7589 74.6434 39.5874 76.3699 35.2362 76.3748ZM35.2362 44.0622C32.0756 44.0622 28.986 44.9971 26.3581 46.7487C23.7302 48.5003 21.682 50.9899 20.4725 53.9028C19.263 56.8156 18.9466 60.0208 19.5632 63.113C20.1798 66.2052 21.7017 69.0456 23.9366 71.275C26.1714 73.5044 29.0188 75.0226 32.1186 75.6377C35.2184 76.2528 38.4315 75.9371 41.3515 74.7305C44.2714 73.524 46.7672 71.4808 48.5231 68.8594C50.279 66.2379 51.2162 63.1559 51.2162 60.0031C51.2114 55.7768 49.5263 51.7249 46.5305 48.7364C43.5347 45.748 39.4729 44.067 35.2362 44.0622Z" fill="#3F3D56"/>
<path d="M181.648 7.01038H126.582V7.44121H181.648V7.01038Z" fill="#3F3D56"/>
<path d="M246 120.751H87.7114V121.182H246V120.751Z" fill="#3F3D56"/>
<path d="M96.6732 140.569H41.6069V141H96.6732V140.569Z" fill="#3F3D56"/>
<path d="M107.757 118.48H101.711V124.511H107.757V118.48Z" fill="#62DFDF"/>
<path d="M111.429 121.065H104.086V113.74H111.429V121.065ZM104.406 120.746H111.109V114.059H104.406V120.746Z" fill="#3F3D56"/>
<path d="M177.94 4.7392H171.894V10.7709H177.94V4.7392Z" fill="#62DFDF"/>
<path d="M181.611 7.32419H174.269V0H181.611V7.32419ZM174.588 7.00575H181.292V0.318444H174.588V7.00575Z" fill="#3F3D56"/>
<path d="M238.837 118.48H232.791V124.511H238.837V118.48Z" fill="#62DFDF"/>
<path d="M242.508 121.065H235.166V113.74H242.508V121.065ZM235.485 120.746H242.189V114.059H235.485V120.746Z" fill="#3F3D56"/>
<path d="M228.292 49.9678H227.779V35.9309C227.779 34.864 227.568 33.8076 227.159 32.8219C226.75 31.8362 226.15 30.9406 225.393 30.1862C224.637 29.4318 223.739 28.8334 222.751 28.4251C221.763 28.0168 220.704 27.8067 219.635 27.8067H189.822C188.753 27.8067 187.694 28.0168 186.706 28.4251C185.718 28.8334 184.82 29.4318 184.064 30.1862C183.307 30.9406 182.707 31.8362 182.298 32.8219C181.889 33.8076 181.678 34.864 181.678 35.9309V112.939C181.678 114.006 181.889 115.062 182.298 116.048C182.707 117.033 183.307 117.929 184.064 118.683C184.82 119.438 185.718 120.036 186.706 120.444C187.694 120.853 188.753 121.063 189.822 121.063H219.635C220.704 121.063 221.763 120.853 222.751 120.444C223.739 120.036 224.637 119.438 225.393 118.683C226.15 117.929 226.75 117.033 227.159 116.048C227.568 115.062 227.779 114.006 227.779 112.939V59.9596H228.292V49.9678Z" fill="#3F3D56"/>
<path d="M226.044 36.4084V113.304C226.045 114.913 225.404 116.456 224.264 117.594C223.123 118.732 221.576 119.372 219.963 119.372H190.007C188.394 119.372 186.847 118.732 185.707 117.594C184.567 116.456 183.926 114.913 183.926 113.304V36.4084C183.926 34.7996 184.567 33.2567 185.708 32.1191C186.848 30.9816 188.395 30.3424 190.007 30.3422H193.642C193.463 30.7799 193.395 31.2547 193.443 31.7248C193.491 32.195 193.655 32.646 193.919 33.0382C194.184 33.4305 194.541 33.7518 194.959 33.974C195.377 34.1962 195.843 34.3124 196.317 34.3124H213.396C213.87 34.3124 214.337 34.1962 214.755 33.974C215.173 33.7518 215.53 33.4305 215.794 33.0382C216.059 32.646 216.222 32.195 216.271 31.7248C216.319 31.2547 216.251 30.7799 216.072 30.3422H219.963C221.576 30.3424 223.123 30.9816 224.263 32.1191C225.404 33.2567 226.044 34.7996 226.044 36.4084Z" fill="#62DFDF"/>
<path d="M209.447 81.0438H200.523V83.6818H209.447V81.0438Z" fill="#3F3D56"/>
<path d="M220.236 60.5054H189.735V61.6359H220.236V60.5054Z" fill="#3F3D56"/>
<path d="M220.236 64.0854H189.735V65.216H220.236V64.0854Z" fill="#3F3D56"/>
<path d="M220.236 67.6655H189.735V68.7961H220.236V67.6655Z" fill="#3F3D56"/>
<path d="M220.236 71.2457H189.735V72.3762H220.236V71.2457Z" fill="#3F3D56"/>
<path d="M220.236 74.8257H189.735V75.9563H220.236V74.8257Z" fill="#3F3D56"/>
<path d="M206.051 45.4916H200.762V50.7675H206.051V45.4916Z" fill="#F2F2F2"/>
<path d="M202.787 46.8109V53.2174H209.209V46.8109H202.787ZM208.93 52.9396H203.065V47.0888H208.93V52.9396Z" fill="#3F3D56"/>
<path opacity="0.1" d="M226.044 105.092V113.304C226.045 114.913 225.404 116.456 224.264 117.594C223.123 118.732 221.576 119.372 219.963 119.372H190.007C188.394 119.372 186.847 118.732 185.707 117.594C184.567 116.456 183.926 114.913 183.926 113.304V71.8984L209.164 91.7879L209.596 92.1282L214.29 95.8269L214.729 96.1738L226.044 105.092Z" fill="black"/>
<path d="M202.394 116.88C207.626 116.88 211.867 112.649 211.867 107.43C211.867 102.211 207.626 97.9802 202.394 97.9802C197.162 97.9802 192.921 102.211 192.921 107.43C192.921 112.649 197.162 116.88 202.394 116.88Z" fill="#F6A2BC"/>
<path d="M69.1399 141C65.4241 141 61.7918 139.901 58.7022 137.842C55.6126 135.782 53.2046 132.855 51.7827 129.431C50.3607 126.006 49.9886 122.238 50.7135 118.602C51.4385 114.967 53.2278 111.628 55.8552 109.007C58.4827 106.386 61.8303 104.601 65.4747 103.878C69.1191 103.154 72.8966 103.526 76.3295 104.944C79.7624 106.362 82.6966 108.765 84.761 111.847C86.8254 114.929 87.9272 118.552 87.9272 122.259C87.9216 127.227 85.9404 131.991 82.4183 135.505C78.8962 139.018 74.1209 140.994 69.1399 141ZM69.1399 103.948C65.5095 103.948 61.9607 105.022 58.9422 107.034C55.9236 109.046 53.571 111.906 52.1817 115.252C50.7924 118.597 50.4289 122.279 51.1371 125.831C51.8454 129.383 53.5936 132.645 56.1606 135.206C58.7277 137.767 61.9983 139.511 65.5589 140.217C69.1195 140.924 72.8102 140.561 76.1642 139.175C79.5182 137.79 82.385 135.443 84.4019 132.431C86.4188 129.42 87.4954 125.88 87.4954 122.259C87.4899 117.404 85.5542 112.75 82.1131 109.317C78.672 105.885 74.0064 103.954 69.1399 103.948Z" fill="#3F3D56"/>
<path d="M205.186 114.719C202.837 114.719 200.541 114.024 198.588 112.722C196.634 111.42 195.112 109.57 194.213 107.405C193.314 105.24 193.079 102.858 193.537 100.56C193.996 98.2614 195.127 96.1503 196.788 94.4934C198.449 92.8364 200.565 91.708 202.869 91.2509C205.173 90.7937 207.561 91.0283 209.731 91.9251C211.902 92.8218 213.756 94.3404 215.062 96.2888C216.367 98.2372 217.063 100.528 217.063 102.871C217.06 106.012 215.807 109.024 213.581 111.245C211.354 113.466 208.335 114.716 205.186 114.719ZM205.186 91.454C202.923 91.454 200.71 92.1236 198.828 93.3782C196.945 94.6327 195.478 96.4158 194.612 98.502C193.746 100.588 193.519 102.884 193.961 105.099C194.403 107.313 195.493 109.348 197.093 110.944C198.694 112.541 200.733 113.628 202.953 114.069C205.173 114.509 207.475 114.283 209.566 113.419C211.657 112.555 213.445 111.092 214.702 109.214C215.96 107.337 216.631 105.129 216.631 102.871C216.628 99.8442 215.421 96.9422 213.275 94.8018C211.13 92.6614 208.221 91.4574 205.186 91.454Z" fill="#3F3D56"/>
</g>
<defs>
<clipPath id="clip0_38_276">
<rect width="246" height="141" fill="white"/>
</clipPath>
</defs>
</svg>
