<svg width="215" height="156" viewBox="0 0 215 156" fill="none" xmlns="http://www.w3.org/2000/svg">
<g clip-path="url(#clip0_38_400)">
<path d="M133.995 155.917C136.112 151.325 138.227 146.664 139.145 141.688C140.064 136.712 139.678 131.312 137.048 126.996C134.417 122.68 129.237 119.753 124.294 120.729C120.234 121.53 116.974 124.743 115.065 128.431C113.156 132.118 112.39 136.278 111.648 140.367C111.408 135.721 111.154 131.001 109.618 126.613C108.082 122.224 105.057 118.135 100.746 116.437C96.4348 114.739 90.8268 116.074 88.5547 120.127C85.3536 125.838 89.5981 133.848 85.9173 139.258C85.2859 133.831 79.6361 129.543 74.2665 130.416C68.8968 131.288 64.8814 137.148 65.986 142.498C66.6433 145.682 68.8056 148.39 71.3908 150.346C73.976 152.303 76.9826 154.57 79.9569 155.852L133.995 155.917Z" fill="#F2F2F2"/>
<path d="M68.8051 134.25C73.0704 135.748 77.375 137.263 81.269 139.604C84.759 141.703 87.8668 144.528 89.8295 148.147C90.9049 150.088 91.5434 152.243 91.7 154.459C91.7283 154.922 92.4501 154.925 92.4216 154.459C92.1692 150.332 90.1673 146.555 87.3952 143.569C84.3558 140.294 80.4172 138.058 76.3508 136.322C73.9397 135.294 71.4687 134.419 68.9969 133.551C68.5577 133.397 68.3688 134.097 68.8051 134.25Z" fill="white"/>
<path d="M93.408 117.156C96.0286 121.542 98.1271 126.222 99.6604 131.1C101.197 135.976 102.165 141.015 102.544 146.115C102.754 148.97 102.777 151.836 102.613 154.694C102.586 155.16 103.308 155.158 103.335 154.694C103.626 149.541 103.315 144.371 102.41 139.291C101.505 134.211 100.019 129.253 97.9806 124.516C96.8364 121.856 95.517 119.275 94.0311 116.791C93.9811 116.711 93.9024 116.654 93.8114 116.632C93.7205 116.61 93.6244 116.624 93.5436 116.671C93.4628 116.718 93.4035 116.796 93.3782 116.886C93.3529 116.977 93.3636 117.074 93.408 117.156Z" fill="white"/>
<path d="M128.725 121.32C125.018 129.687 122.41 138.502 120.965 147.544C120.559 150.083 120.245 152.636 120.023 155.2C119.983 155.665 120.705 155.662 120.745 155.2C121.53 146.179 123.471 137.296 126.52 128.773C127.376 126.377 128.319 124.015 129.348 121.686C129.535 121.264 128.913 120.894 128.725 121.32Z" fill="white"/>
<path d="M25.5125 155.375C18.1198 153.442 11.5871 149.072 6.96173 142.964C2.33636 136.857 -0.113875 129.366 0.00380528 121.693C0.0331232 119.781 0.233219 117.829 1.03321 116.095C1.8332 114.36 3.31917 112.859 5.17796 112.448C7.20654 111.999 9.34715 112.916 10.8589 114.347C12.3707 115.778 13.3619 117.666 14.2739 119.541C19.7671 130.834 23.9406 142.95 25.5032 155.42L25.5125 155.375Z" fill="#F2F2F2"/>
<path d="M4.25786 112.825L8.10776 121.612L11.9577 130.399C13.1769 133.182 14.3939 135.967 15.6541 138.731C16.9033 141.472 18.1953 144.193 19.5736 146.87C20.9499 149.544 22.4127 152.174 24.0005 154.727C24.1982 155.045 24.3979 155.362 24.5995 155.677C24.7391 155.896 25.0878 155.693 24.9473 155.473C23.3291 152.939 21.838 150.325 20.4394 147.662C19.0394 144.997 17.7309 142.284 16.4707 139.55C15.2038 136.801 13.9855 134.029 12.7706 131.257C11.4917 128.338 10.2131 125.42 8.93464 122.501L5.08473 113.714L4.60563 112.621C4.50145 112.383 4.15429 112.588 4.25783 112.825L4.25786 112.825Z" fill="white"/>
<path d="M23.9067 155.436C19.5491 156.437 14.983 155.94 10.9403 154.023C6.89764 152.107 3.61256 148.883 1.61165 144.867C1.11311 143.866 0.692465 142.799 0.641581 141.681C0.590697 140.563 0.958943 139.381 1.81352 138.664C2.74617 137.881 4.10399 137.776 5.27343 138.109C6.44287 138.442 7.46488 139.154 8.44219 139.88C14.3287 144.253 19.7517 149.412 23.9141 155.462L23.9067 155.436Z" fill="#F2F2F2"/>
<path d="M1.4369 139.109L5.79715 142.627L10.1574 146.145C11.5383 147.259 12.9183 148.375 14.3156 149.468C15.7005 150.552 17.1026 151.615 18.5377 152.631C19.9707 153.646 21.437 154.615 22.9474 155.51C23.1355 155.621 23.3243 155.731 23.5137 155.84C23.6449 155.916 23.7715 155.716 23.6394 155.64C22.1182 154.763 20.6417 153.811 19.2001 152.808C17.757 151.804 16.3486 150.75 14.9595 149.672C13.563 148.588 12.1857 147.48 10.8099 146.37C9.36164 145.202 7.9135 144.033 6.46545 142.865L2.1052 139.346L1.56259 138.909C1.4446 138.813 1.31963 139.014 1.4369 139.109H1.4369Z" fill="white"/>
<path d="M209.492 156H10.5043C10.4666 156 10.4293 155.993 10.3944 155.978C10.3596 155.964 10.3279 155.943 10.3012 155.916C10.2745 155.889 10.2534 155.858 10.2389 155.823C10.2245 155.788 10.217 155.75 10.217 155.712C10.217 155.674 10.2245 155.637 10.2389 155.602C10.2534 155.567 10.2745 155.535 10.3012 155.509C10.3279 155.482 10.3596 155.461 10.3944 155.446C10.4293 155.432 10.4666 155.424 10.5043 155.425H209.492C209.568 155.425 209.64 155.455 209.694 155.509C209.748 155.563 209.778 155.636 209.778 155.712C209.778 155.789 209.748 155.862 209.694 155.916C209.64 155.97 209.568 156 209.492 156Z" fill="#3F3D56"/>
<path d="M204.264 127.175H190.792C190.792 127.336 190.729 127.489 190.616 127.602C190.503 127.716 190.351 127.779 190.191 127.779H176.967C176.78 127.921 176.61 128.083 176.459 128.263C176.007 128.804 175.76 129.489 175.762 130.196V130.679C175.762 131.48 176.079 132.248 176.643 132.814C177.206 133.381 177.971 133.699 178.768 133.699H204.264C205.061 133.699 205.826 133.38 206.39 132.814C206.953 132.248 207.27 131.48 207.271 130.679V130.196C207.27 129.395 206.953 128.627 206.389 128.061C205.825 127.495 205.061 127.176 204.264 127.175Z" fill="#3F3D56"/>
<path d="M193.199 133.579H190.072V155.809H193.199V133.579Z" fill="#3F3D56"/>
<path d="M202.099 155.699C202.099 156.038 197.36 155.83 191.515 155.83C185.67 155.83 180.932 156.038 180.932 155.699C180.932 155.36 185.67 152.668 191.515 152.668C197.36 152.668 202.099 155.36 202.099 155.699Z" fill="#3F3D56"/>
<path d="M203.675 127.871L203.151 124.575C203.084 124.16 202.857 123.788 202.517 123.541C202.178 123.294 201.756 123.193 201.342 123.259L195.933 124.126L186.667 125.612L183.654 126.095H190.191C190.351 126.095 190.503 126.159 190.616 126.272C190.729 126.386 190.792 126.539 190.792 126.699V127.175C190.792 127.336 190.729 127.489 190.616 127.602C190.503 127.716 190.351 127.779 190.191 127.779H173.554C173.322 127.889 173.121 128.055 172.969 128.263C172.841 128.432 172.749 128.625 172.698 128.831C172.646 129.037 172.637 129.252 172.671 129.461L172.82 130.399L173.001 131.537L173.195 132.759C173.262 133.174 173.489 133.545 173.827 133.791C174.165 134.038 174.587 134.139 174.999 134.074L179.298 133.385L191.694 131.397L202.364 129.686C202.777 129.618 203.146 129.39 203.392 129.05C203.637 128.71 203.739 128.286 203.675 127.871Z" fill="white"/>
<path d="M178.968 128.263C178.81 128.052 178.6 127.885 178.359 127.779H173.761C173.519 127.885 173.308 128.051 173.15 128.263C172.936 128.538 172.82 128.877 172.82 129.227V147.641C172.821 148.061 172.987 148.463 173.282 148.76C173.578 149.057 173.978 149.223 174.396 149.224H177.722C178.14 149.223 178.54 149.056 178.835 148.76C179.131 148.463 179.297 148.061 179.298 147.641V129.227C179.298 128.877 179.182 128.538 178.968 128.263Z" fill="white"/>
<path d="M188.979 96.8992L188.948 96.8581L186.884 94.3041C186.774 94.167 186.641 94.0501 186.492 93.9585C186.412 93.9046 186.327 93.8608 186.237 93.8281C186.105 93.7751 185.967 93.7409 185.825 93.7266C185.731 93.7165 185.636 93.7149 185.542 93.7217C185.54 93.7219 185.538 93.7228 185.537 93.7242C185.218 93.7478 184.914 93.8692 184.666 94.0721L180.43 97.5226L174.987 101.959L166.865 108.58L166.273 109.063H176.551L177.145 108.58L179.11 106.978L179.249 106.866L188.741 99.1318L188.748 99.127C188.943 98.969 189.098 98.7659 189.198 98.535C189.264 98.3838 189.306 98.2232 189.323 98.059C189.345 97.8524 189.325 97.6436 189.266 97.4445C189.207 97.2454 189.11 97.0601 188.979 96.8992Z" fill="white"/>
<path d="M188.948 96.8581C188.815 96.207 188.52 95.6002 188.091 95.0942C187.664 94.5844 187.113 94.1933 186.492 93.9586C186.395 93.9223 186.302 93.8885 186.206 93.8619C185.988 93.797 185.766 93.7501 185.542 93.7218C185.54 93.722 185.538 93.7228 185.537 93.7242C184.525 93.6067 183.507 93.8892 182.699 94.5119L175.372 100.137C175.217 100.277 175.091 100.447 175.002 100.636C174.913 100.826 174.863 101.032 174.855 101.241C174.844 101.488 174.889 101.733 174.987 101.959C175.011 102.01 175.038 102.06 175.067 102.109C175.123 102.207 175.191 102.298 175.269 102.379L176.442 103.703L179.172 106.779L179.249 106.866L179.425 107.067C179.565 107.221 179.733 107.346 179.921 107.434C180.109 107.522 180.312 107.572 180.519 107.582C180.726 107.591 180.933 107.559 181.128 107.487C181.323 107.416 181.502 107.307 181.655 107.166L187.973 100.347C188.302 99.9932 188.562 99.5811 188.741 99.1319C189.029 98.4105 189.101 97.6201 188.948 96.8581Z" fill="#F6A2BC"/>
<path d="M191.741 88.1085C198.399 88.1085 203.797 82.6862 203.797 75.9975C203.797 69.3088 198.399 63.8865 191.741 63.8865C185.083 63.8865 179.685 69.3088 179.685 75.9975C179.685 82.6862 185.083 88.1085 191.741 88.1085Z" fill="white"/>
<path d="M196.262 126.204L195.933 124.126L195.738 122.906C195.671 122.491 195.444 122.12 195.105 121.873C194.767 121.627 194.344 121.525 193.931 121.591L185.169 122.995L182.793 123.377L182.312 123.454V126.095H190.191C190.351 126.095 190.504 126.159 190.616 126.272C190.729 126.386 190.792 126.539 190.792 126.699V127.175C190.792 127.336 190.729 127.489 190.616 127.602C190.504 127.716 190.351 127.779 190.191 127.779H165.256C165.256 127.784 165.258 127.789 165.258 127.794L165.407 128.731L165.782 131.09C165.849 131.504 166.076 131.875 166.414 132.122C166.752 132.368 167.174 132.47 167.586 132.404L171.885 131.716L172.82 131.566L173.001 131.537L179.298 130.527L183.581 129.838L190.379 128.748L190.48 128.731L194.951 128.016C195.364 127.95 195.734 127.722 195.979 127.382C196.225 127.042 196.327 126.619 196.262 126.204Z" fill="white"/>
<path d="M208.149 117.317C208.149 127.19 207.151 133.095 191.757 131.404C191.735 131.401 191.716 131.399 191.694 131.397C188.949 131.124 186.233 130.603 183.581 129.838C182.203 129.434 180.864 128.907 179.579 128.263C179.276 128.108 178.985 127.946 178.699 127.779H190.191C190.351 127.779 190.503 127.716 190.616 127.602C190.729 127.489 190.792 127.336 190.792 127.175V126.699C190.792 126.539 190.729 126.386 190.616 126.272C190.503 126.159 190.351 126.095 190.191 126.095H182.311V110.834C182.311 110.364 182.125 109.914 181.794 109.582C181.464 109.25 181.016 109.063 180.548 109.063H174.138C174.194 108.903 174.249 108.741 174.309 108.58C174.91 106.908 175.623 105.279 176.442 103.703C177.565 101.516 178.901 99.4452 180.43 97.5226C181.496 96.1827 182.691 94.9532 184 93.8522C186.412 91.8515 189.039 90.6144 191.704 90.6144C201.532 90.6144 208.149 107.444 208.149 117.317Z" fill="#F6A2BC"/>
<path d="M191.994 80.4863L192.007 80.0337C191.169 80.0103 190.43 79.9574 189.874 79.5499C189.717 79.4278 189.588 79.2731 189.495 79.0963C189.403 78.9195 189.349 78.7247 189.338 78.5252C189.328 78.4033 189.347 78.2808 189.392 78.1672C189.437 78.0536 189.507 77.952 189.598 77.8702C189.966 77.5575 190.559 77.6587 190.992 77.8578L191.364 78.0295L190.65 72.7817L190.203 72.8432L190.811 77.3071C190.562 77.2144 190.294 77.1857 190.032 77.2236C189.769 77.2616 189.52 77.3651 189.307 77.5246C189.164 77.6501 189.051 77.8072 188.979 77.9835C188.906 78.1599 188.875 78.3507 188.888 78.5411C188.901 78.8092 188.972 79.071 189.097 79.3085C189.221 79.5459 189.396 79.753 189.609 79.9155C190.322 80.4392 191.249 80.4653 191.994 80.4863Z" fill="#2F2E41"/>
<path d="M187.996 73.2281H185.57V73.6807H187.996V73.2281Z" fill="#2F2E41"/>
<path d="M195.655 73.2281H193.228V73.6807H195.655V73.2281Z" fill="#2F2E41"/>
<path d="M201.363 72.6699C200.425 71.2521 198.775 70.6511 197.148 70.5049C195.317 70.3403 193.548 70.695 191.76 71.0397C189.792 71.419 187.71 71.7738 185.727 71.2943C184.85 71.0905 184.031 70.6893 183.33 70.121C182.63 69.5527 182.067 68.8321 181.685 68.0135C180.959 66.4165 180.802 64.6171 181.242 62.9179C181.706 61.1106 182.859 59.5204 184.257 58.3194C187.111 55.868 190.972 54.7663 194.686 54.87C198.386 54.966 201.962 56.2291 204.907 58.4804C207.857 60.813 209.933 64.0814 210.796 67.752C211.699 71.3925 211.405 75.2285 209.958 78.6873C209.146 80.5813 207.97 82.2887 207.063 84.1349C206.219 85.8539 205.569 87.8525 206.094 89.7698C206.555 91.4522 207.909 92.9469 209.608 93.4037C210.381 93.6074 211.199 93.5536 211.939 93.2501C212.679 92.9466 213.301 92.4099 213.711 91.7208C214.561 90.3751 214.581 88.6126 213.306 87.5261C212.984 87.2477 212.61 87.0378 212.205 86.9093C211.8 86.7809 211.373 86.7364 210.951 86.7788C210.528 86.8211 210.119 86.9494 209.747 87.1557C209.376 87.362 209.05 87.6421 208.789 87.9789C208.272 88.654 208.04 89.5069 208.145 90.3525C208.208 90.7799 207.556 90.9643 207.493 90.533C207.341 89.6387 207.51 88.7192 207.969 87.9383C208.429 87.1574 209.15 86.5658 210.003 86.2689C210.857 85.972 211.787 85.9891 212.629 86.3172C213.471 86.6452 214.17 87.2629 214.601 88.0602C215.37 89.513 214.955 91.2653 213.978 92.5071C213.475 93.1686 212.792 93.6702 212.012 93.952C211.232 94.2338 210.387 94.2839 209.579 94.0962C207.802 93.6839 206.348 92.2648 205.665 90.5973C204.903 88.7408 205.252 86.6691 205.994 84.8677C206.796 82.9204 207.987 81.1739 208.929 79.2974C209.782 77.6016 210.325 75.7656 210.532 73.877C210.946 70.0845 210.089 66.2617 208.097 63.0133C206.067 59.8154 202.968 57.4495 199.357 56.3406C195.773 55.1836 191.903 55.2864 188.384 56.6321C184.95 57.9913 181.635 60.9533 181.674 64.9315C181.691 66.6308 182.319 68.3638 183.615 69.4973C185.164 70.8518 187.32 70.9676 189.266 70.7562C191.225 70.5435 193.127 69.9688 195.095 69.8222C196.806 69.6946 198.652 69.8272 200.18 70.6813C200.891 71.0799 201.497 71.6444 201.946 72.3273C202.187 72.6922 201.602 73.0326 201.363 72.6699V72.6699Z" fill="#2F2E41"/>
<path d="M198.908 100.362L197.953 99.6948L196.175 98.4553C195.832 98.2165 195.408 98.1244 194.997 98.1992C194.585 98.2739 194.221 98.5094 193.982 98.8539L188.188 107.231L182.793 115.031L182.312 115.727V126.095H182.355C182.73 126.058 183.079 125.886 183.338 125.612C183.394 125.554 183.445 125.492 183.49 125.426L185.169 122.995L189.318 116.995L193.619 110.781L194.028 110.189L199.3 102.565C199.329 102.525 199.355 102.483 199.379 102.44C199.403 102.398 199.425 102.356 199.444 102.312C199.595 101.975 199.625 101.596 199.527 101.239C199.429 100.883 199.21 100.573 198.908 100.362Z" fill="white"/>
<path d="M198.925 97.0465C198.755 96.9343 198.576 96.8357 198.391 96.7517C197.569 96.3734 196.643 96.2908 195.768 96.5179C194.892 96.745 194.122 97.2678 193.585 97.9986L188.111 105.455C188.001 105.633 187.927 105.831 187.894 106.037C187.861 106.243 187.869 106.454 187.918 106.658C187.966 106.861 188.055 107.052 188.178 107.221C188.301 107.39 188.457 107.532 188.635 107.64L193.619 110.781L193.681 110.819L193.931 110.976C194.289 111.194 194.718 111.26 195.124 111.16C195.53 111.061 195.881 110.803 196.099 110.445L199.964 102.737L200.029 102.609L200.031 102.606L200.269 102.126C200.704 101.261 200.807 100.265 200.559 99.3292C200.311 98.3929 199.729 97.5806 198.925 97.0465Z" fill="#F6A2BC"/>
<path d="M165.407 127.779V145.972C165.408 146.391 165.574 146.793 165.869 147.09C166.165 147.387 166.565 147.554 166.983 147.554H170.309C170.727 147.554 171.127 147.387 171.423 147.09C171.718 146.794 171.884 146.391 171.885 145.972V127.779H165.407Z" fill="white"/>
<path d="M190.191 125.612H182.792V110.834C182.792 110.236 182.555 109.663 182.134 109.241C181.714 108.818 181.143 108.58 180.548 108.58H153.111C152.516 108.58 151.945 108.817 151.524 109.24C151.103 109.663 150.866 110.236 150.865 110.834V126.008C150.866 126.606 151.103 127.18 151.524 127.602C151.945 128.025 152.516 128.263 153.111 128.263H190.191C190.23 128.263 190.266 128.26 190.302 128.258C190.335 128.255 190.369 128.248 190.403 128.243C190.648 128.193 190.869 128.06 191.028 127.865C191.186 127.671 191.273 127.427 191.273 127.175V126.699C191.273 126.411 191.159 126.134 190.956 125.931C190.753 125.727 190.478 125.612 190.191 125.612ZM190.191 127.779H153.111C152.643 127.779 152.195 127.593 151.864 127.261C151.533 126.929 151.347 126.478 151.346 126.008V110.834C151.347 110.364 151.533 109.914 151.864 109.582C152.195 109.25 152.643 109.063 153.111 109.063H180.548C181.016 109.064 181.464 109.25 181.794 109.582C182.125 109.914 182.311 110.364 182.311 110.834V126.095H190.191C190.35 126.095 190.503 126.159 190.616 126.272C190.729 126.386 190.792 126.539 190.792 126.699V127.175C190.792 127.336 190.729 127.489 190.616 127.602C190.503 127.716 190.35 127.779 190.191 127.779Z" fill="#3F3D56"/>
<path d="M166.829 120.28C167.85 120.28 168.679 119.448 168.679 118.421C168.679 117.395 167.85 116.563 166.829 116.563C165.807 116.563 164.979 117.395 164.979 118.421C164.979 119.448 165.807 120.28 166.829 120.28Z" fill="white"/>
<path d="M29.3436 87.3105C36.453 87.3105 42.2164 81.5208 42.2164 74.3787C42.2164 67.2367 36.453 61.4469 29.3436 61.4469C22.2341 61.4469 16.4707 67.2367 16.4707 74.3787C16.4707 81.5208 22.2341 87.3105 29.3436 87.3105Z" fill="white"/>
<path d="M26.834 123.027H23.2839C22.8694 123.027 22.4719 123.193 22.1788 123.487C21.8857 123.782 21.7209 124.181 21.7205 124.597V154.32C21.7209 154.736 21.8857 155.136 22.1788 155.43C22.4719 155.725 22.8694 155.89 23.2839 155.891H26.834C27.2486 155.89 27.646 155.725 27.9391 155.43C28.2322 155.136 28.3971 154.736 28.3975 154.32V124.597C28.3971 124.181 28.2322 123.782 27.9391 123.487C27.646 123.193 27.2486 123.027 26.834 123.027Z" fill="#2F2E41"/>
<path d="M34.3362 123.027H30.7861C30.3716 123.027 29.9741 123.193 29.681 123.487C29.3879 123.782 29.2231 124.181 29.2227 124.597V154.32C29.223 154.736 29.3879 155.136 29.681 155.43C29.9741 155.725 30.3716 155.89 30.7861 155.891H34.3362C34.5415 155.891 34.7449 155.85 34.9345 155.771C35.1242 155.692 35.2966 155.577 35.4418 155.431C35.5869 155.285 35.7021 155.112 35.7807 154.921C35.8592 154.731 35.8997 154.526 35.8997 154.32V124.597C35.8997 124.391 35.8592 124.187 35.7807 123.996C35.7021 123.806 35.5869 123.632 35.4418 123.487C35.2966 123.341 35.1242 123.225 34.9345 123.146C34.7448 123.067 34.5415 123.027 34.3362 123.027Z" fill="#2F2E41"/>
<path d="M36.9072 94.0915C35.6631 92.4763 33.9475 91.2922 32.0004 90.7048C30.0533 90.1175 27.9722 90.1563 26.0482 90.8159C24.1241 91.4754 22.4534 92.7227 21.2699 94.3832C20.0863 96.0437 19.4491 98.0343 19.4474 100.077V126.4C19.4464 126.48 19.4528 126.56 19.4666 126.639C19.5237 127.042 19.7234 127.41 20.0292 127.677C20.3349 127.944 20.7261 128.091 21.1311 128.091H37.2633C37.7096 128.09 38.1373 127.912 38.4529 127.595C38.7684 127.278 38.9461 126.848 38.947 126.4V100.077C38.95 97.909 38.2321 95.8024 36.9072 94.0915Z" fill="#2F2E41"/>
<path d="M40.2143 80.0953L40.2009 79.612C41.0959 79.587 41.8849 79.5306 42.4777 79.0955C42.6458 78.9651 42.784 78.7999 42.8828 78.6111C42.9816 78.4223 43.0388 78.2143 43.0505 78.0013C43.0609 77.8712 43.0413 77.7403 42.9932 77.619C42.9451 77.4977 42.8699 77.3892 42.7732 77.3019C42.3797 76.968 41.7464 77.0761 41.2848 77.2887L40.8868 77.472L41.6501 71.8685L42.1267 71.9341L41.4774 76.7007C42.1046 76.5154 42.6857 76.5952 43.0837 76.9328C43.2366 77.0669 43.3565 77.2346 43.4341 77.4229C43.5117 77.6112 43.545 77.815 43.5312 78.0183C43.5172 78.3045 43.441 78.5841 43.308 78.8376C43.1751 79.0911 42.9885 79.3123 42.7615 79.4858C41.9997 80.045 41.0098 80.0729 40.2143 80.0953Z" fill="#2F2E41"/>
<path d="M38.8965 72.3452H36.3057V72.8284H38.8965V72.3452Z" fill="#2F2E41"/>
<path d="M25.569 94.4635C25.4302 94.3112 25.2626 94.1881 25.0759 94.1014C24.8893 94.0147 24.6873 93.9661 24.4819 93.9585L21.6845 93.8425L20.9364 93.8111C20.5223 93.7941 20.1183 93.9428 19.813 94.2245C19.5078 94.5062 19.3262 94.898 19.308 95.3141L18.8655 106.023L18.0838 125.013C18.0678 125.409 18.2015 125.797 18.4579 126.098C18.7144 126.4 19.0747 126.593 19.4668 126.639C19.5054 126.644 19.5414 126.646 19.5799 126.649L21.7206 126.738L23.1277 126.796C23.2404 126.801 23.3533 126.794 23.4644 126.774C23.7583 126.721 24.0311 126.586 24.251 126.383C24.4026 126.243 24.5252 126.075 24.6115 125.887C24.6977 125.7 24.7461 125.497 24.7536 125.291L24.8475 123.027L25.5378 106.279L25.9803 95.5919C25.9976 95.1759 25.8497 94.77 25.569 94.4635Z" fill="white"/>
<path d="M23.5197 92.1198C23.2207 92.0564 22.916 92.0248 22.6104 92.0255C21.4307 92.027 20.2997 92.4984 19.4655 93.3364C18.6313 94.1744 18.1621 95.3106 18.1606 96.4957V104.711C18.1613 104.971 18.226 105.227 18.349 105.456C18.472 105.685 18.6494 105.88 18.8654 106.023C19.0416 106.14 19.2397 106.219 19.4475 106.255C19.5387 106.273 19.6313 106.281 19.7241 106.282H25.4967C25.5105 106.282 25.5242 106.281 25.5377 106.279C25.9449 106.269 26.3319 106.099 26.6163 105.806C26.9007 105.513 27.06 105.12 27.0602 104.711V96.4957C27.0589 95.4691 26.7064 94.4741 26.0619 93.6774C25.4173 92.8808 24.5198 92.3308 23.5197 92.1198Z" fill="#2F2E41"/>
<path d="M54.3505 115.517C53.9732 115.321 53.677 114.998 53.5141 114.604C53.3513 114.21 53.3323 113.771 53.4605 113.364L54.8291 108.988L54.4298 108.654L43.926 99.9244L36.9073 94.0914L36.0535 93.3811C35.7342 93.1155 35.323 92.9882 34.9103 93.0272C34.4975 93.0661 34.1171 93.2682 33.8527 93.5889L31.5893 96.3386C31.458 96.4973 31.3593 96.6804 31.2986 96.8775C31.238 97.0746 31.2166 97.2818 31.2358 97.4872C31.2551 97.6926 31.3144 97.8921 31.4106 98.0744C31.5067 98.2567 31.6377 98.4182 31.7961 98.5495L38.9471 104.494L39.7601 105.168L54.5934 117.496C54.8677 117.725 55.2118 117.852 55.5685 117.858C55.9251 117.863 56.2728 117.745 56.5537 117.525C56.6311 117.464 56.7021 117.395 56.7653 117.319C56.7756 117.309 56.7853 117.299 56.7942 117.288L57.0804 116.94L54.3505 115.517Z" fill="white"/>
<path d="M43.4209 98.2475L37.0928 93.0452C36.6406 92.6733 36.1199 92.3945 35.5605 92.2247C35.0011 92.055 34.4139 91.9976 33.8324 92.0558C33.2509 92.114 32.6865 92.2867 32.1714 92.5641C31.6564 92.8414 31.2008 93.2179 30.8306 93.6722C30.4603 94.1264 30.1828 94.6494 30.0138 95.2114C29.8449 95.7734 29.7877 96.3633 29.8457 96.9475C29.9627 98.1272 30.5415 99.212 31.4547 99.963L37.783 105.165C38.0617 105.395 38.4108 105.52 38.7711 105.521C39.1315 105.521 39.4809 105.396 39.7602 105.168C39.8434 105.103 39.9185 105.028 39.9838 104.945L43.6399 100.458C43.7693 100.301 43.8665 100.12 43.9261 99.9244C44.0161 99.626 44.0161 99.3075 43.9263 99.0091C43.8364 98.7107 43.6605 98.4457 43.4209 98.2475Z" fill="#2F2E41"/>
<path d="M26.1161 76.5682C25.4458 75.4432 24.9212 74.2037 25.1702 72.8708C25.3926 71.6805 26.2452 70.7536 27.4713 70.6319C28.2096 70.5586 28.9444 70.7567 29.6656 70.8856C30.2567 70.9899 30.8574 71.029 31.457 71.0022C32.6635 70.9471 33.8461 70.6459 34.9329 70.1168C36.0361 69.5982 37.0159 68.8484 37.8065 67.9176C38.5971 66.9869 39.1802 65.8969 39.5165 64.7209C40.2482 62.0452 39.705 59.0067 37.9675 56.8287L38.5705 56.6687L37.7853 59.26C37.77 59.3132 37.7429 59.3621 37.7061 59.4032C37.6692 59.4444 37.6236 59.4765 37.5726 59.4974C37.5216 59.5182 37.4665 59.5272 37.4116 59.5236C37.3566 59.52 37.3032 59.504 37.2553 59.4766C35.8323 58.5734 34.2415 57.97 32.5793 57.703C30.9172 57.4361 29.2183 57.5111 27.5859 57.9236C26.6635 58.1564 25.7726 58.5007 24.9327 58.9488C24.5228 59.1677 24.1578 58.5422 24.5685 58.3229C26.1461 57.4961 27.8743 56.9995 29.6485 56.8629C31.4227 56.7264 33.2061 56.9528 34.8906 57.5285C35.85 57.857 36.7663 58.301 37.6195 58.8507L37.0895 59.0673L37.8747 56.476C37.8922 56.4154 37.925 56.3604 37.9699 56.3164C38.0149 56.2723 38.0704 56.2407 38.1311 56.2246C38.1918 56.2085 38.2557 56.2084 38.3164 56.2245C38.3771 56.2405 38.4327 56.2721 38.4777 56.3161C39.2858 57.3459 39.878 58.5293 40.2187 59.7952C40.5594 61.061 40.6414 62.3831 40.4599 63.6816C40.2845 64.9615 39.8418 66.1897 39.1608 67.2857C38.4798 68.3816 37.5759 69.3206 36.5084 70.041C35.4419 70.7642 34.2433 71.2677 32.9818 71.5225C31.7204 71.7772 30.4212 71.7781 29.1594 71.5251C28.4532 71.3888 27.6524 71.1936 26.9595 71.4906C26.7082 71.6124 26.4867 71.7882 26.3107 72.0057C26.1346 72.2232 26.0085 72.4769 25.9411 72.7489C25.5484 74.0854 26.2165 75.3547 26.899 76.466L26.1161 76.5682Z" fill="#2F2E41"/>
<path d="M73.078 103.341L61.1791 96.4232C60.8827 96.2511 60.5517 96.148 60.2104 96.1216C59.8691 96.0953 59.5262 96.1462 59.2072 96.2708C58.8881 96.3953 58.6009 96.5903 58.3669 96.8412C58.1329 97.0922 57.9579 97.3927 57.855 97.7207L54.4298 108.654L53.0011 113.219C52.8392 113.734 52.8637 114.29 53.0701 114.788C53.2764 115.287 53.6515 115.697 54.1292 115.944L56.7654 117.319L65.3667 121.802C65.692 121.972 66.0534 122.06 66.4202 122.06C66.691 122.059 66.9596 122.011 67.2139 121.917L67.2308 121.91C67.5313 121.795 67.8043 121.617 68.0322 121.389C68.2601 121.161 68.4378 120.888 68.5537 120.586L74.0666 106.149C74.2631 105.639 74.2714 105.076 74.09 104.561C73.9087 104.046 73.5497 103.613 73.078 103.341ZM73.6168 105.977L68.1039 120.415C68.0121 120.653 67.8715 120.868 67.6913 121.048C67.511 121.228 67.2951 121.368 67.0575 121.458L67.0456 121.463C66.8097 121.551 66.5583 121.588 66.3074 121.573C66.0565 121.557 65.8114 121.49 65.588 121.374L57.0805 116.94L54.3506 115.517C53.9733 115.321 53.677 114.998 53.5141 114.604C53.3513 114.21 53.3323 113.77 53.4606 113.364L54.8291 108.988L58.312 97.8657C58.3938 97.6071 58.5322 97.3703 58.717 97.1726C58.9019 96.9748 59.1285 96.8212 59.3802 96.7229C59.6319 96.6246 59.9023 96.5842 60.1715 96.6047C60.4408 96.6252 60.7021 96.706 60.9362 96.8412L72.835 103.759C73.2079 103.974 73.4918 104.316 73.6352 104.723C73.7786 105.13 73.7721 105.575 73.6168 105.977Z" fill="#3F3D56"/>
<path d="M69.0857 107.967C68.9652 107.967 68.8466 107.936 68.7409 107.878L60.8034 103.529C60.6361 103.436 60.512 103.281 60.4584 103.097C60.4048 102.913 60.4261 102.715 60.5175 102.546C60.609 102.378 60.7632 102.253 60.9463 102.198C61.1294 102.144 61.3265 102.165 61.4945 102.256L69.4319 106.605C69.5727 106.682 69.6839 106.805 69.748 106.952C69.812 107.1 69.8252 107.265 69.7855 107.421C69.7458 107.577 69.6555 107.716 69.5287 107.815C69.402 107.913 69.2461 107.967 69.0857 107.967H69.0857Z" fill="white"/>
<path d="M67.6426 111.108C67.5221 111.108 67.4035 111.077 67.2977 111.019L59.3603 106.67C59.193 106.578 59.0689 106.422 59.0153 106.238C58.9617 106.054 58.983 105.856 59.0744 105.688C59.1659 105.519 59.32 105.394 59.5032 105.34C59.6863 105.285 59.8834 105.306 60.0514 105.397L67.9888 109.747C68.1296 109.824 68.2408 109.946 68.3048 110.094C68.3689 110.241 68.3821 110.406 68.3424 110.562C68.3027 110.718 68.2123 110.857 68.0856 110.956C67.9589 111.054 67.803 111.108 67.6426 111.108H67.6426Z" fill="white"/>
<path d="M66.44 114.491C66.3195 114.491 66.2009 114.46 66.0951 114.402L58.1577 110.053C57.9903 109.96 57.8663 109.805 57.8127 109.621C57.7591 109.437 57.7804 109.239 57.8718 109.07C57.9632 108.902 58.1174 108.777 58.3005 108.722C58.4836 108.668 58.6808 108.689 58.8487 108.78L66.7861 113.129C66.927 113.206 67.0382 113.329 67.1022 113.476C67.1662 113.624 67.1794 113.789 67.1397 113.945C67.1 114.101 67.0097 114.24 66.883 114.338C66.7563 114.437 66.6004 114.491 66.44 114.491H66.44Z" fill="white"/>
<path d="M150.378 46.0408H117.01C116.53 46.0403 116.07 45.8486 115.731 45.5079C115.392 45.1672 115.201 44.7053 115.201 44.2234V1.8174C115.201 1.33556 115.392 0.873618 115.731 0.532908C116.07 0.192198 116.53 0.000548074 117.01 0H150.378C150.858 0.000551265 151.317 0.192203 151.657 0.532912C151.996 0.873621 152.186 1.33556 152.187 1.8174V44.2234C152.186 44.7053 151.996 45.1672 151.657 45.5079C151.317 45.8486 150.858 46.0403 150.378 46.0408ZM117.01 0.403868C116.637 0.404288 116.279 0.553349 116.015 0.818347C115.752 1.08334 115.603 1.44264 115.603 1.8174V44.2234C115.603 44.5982 115.752 44.9575 116.015 45.2225C116.279 45.4875 116.637 45.6365 117.01 45.637H150.378C150.751 45.6365 151.109 45.4875 151.372 45.2225C151.636 44.9575 151.785 44.5982 151.785 44.2234V1.8174C151.785 1.44264 151.636 1.08334 151.372 0.818347C151.109 0.553349 150.751 0.404289 150.378 0.403868H117.01Z" fill="#3F3D56"/>
<path d="M130.918 20.3835H123.573C123.333 20.3833 123.103 20.2874 122.934 20.1171C122.764 19.9467 122.669 19.7157 122.668 19.4748V10.7675C122.669 10.5266 122.764 10.2956 122.934 10.1253C123.103 9.95492 123.333 9.85909 123.573 9.85883H130.918C131.158 9.85909 131.388 9.95492 131.557 10.1253C131.727 10.2956 131.822 10.5266 131.823 10.7675V19.4748C131.822 19.7157 131.727 19.9467 131.557 20.1171C131.388 20.2874 131.158 20.3833 130.918 20.3835Z" fill="white"/>
<path d="M145.19 24.4222H137.845C137.605 24.4219 137.375 24.3261 137.206 24.1557C137.036 23.9854 136.941 23.7544 136.94 23.5135V14.8062C136.941 14.5652 137.036 14.3343 137.206 14.1639C137.375 13.9936 137.605 13.8977 137.845 13.8975H145.19C145.43 13.8977 145.66 13.9936 145.829 14.1639C145.999 14.3343 146.094 14.5652 146.095 14.8062V23.5135C146.094 23.7544 145.999 23.9854 145.829 24.1557C145.66 24.3261 145.43 24.4219 145.19 24.4222Z" fill="#CCCCCC"/>
<path d="M133.732 36.7401H126.387C126.147 36.7398 125.917 36.644 125.748 36.4736C125.578 36.3033 125.483 36.0723 125.483 35.8314V27.1241C125.483 26.8832 125.578 26.6522 125.748 26.4818C125.917 26.3115 126.147 26.2157 126.387 26.2154H133.732C133.972 26.2157 134.202 26.3115 134.372 26.4818C134.541 26.6522 134.637 26.8832 134.637 27.1241V35.8314C134.637 36.0723 134.541 36.3033 134.372 36.4736C134.202 36.644 133.972 36.7398 133.732 36.7401Z" fill="#F6A2BC"/>
<path d="M106.852 34.5788C106.713 34.2479 106.481 33.9651 106.184 33.7654C105.886 33.5657 105.538 33.4579 105.18 33.4553H71.8117C71.3321 33.4555 70.8722 33.6471 70.533 33.9878C70.1938 34.3285 70.0032 34.7905 70.0029 35.2723V77.6783C70.0032 78.1602 70.1939 78.6222 70.533 78.9629C70.8722 79.3036 71.3321 79.4951 71.8117 79.4954H105.18C105.66 79.4947 106.119 79.3031 106.458 78.9624C106.797 78.6218 106.988 78.16 106.989 77.6783V35.2723C106.99 35.0343 106.943 34.7985 106.852 34.5788ZM106.587 77.6783C106.587 78.0531 106.438 78.4123 106.175 78.6773C105.911 78.9423 105.553 79.0914 105.18 79.0919H71.8117C71.4385 79.0918 71.0807 78.9429 70.8168 78.6778C70.5529 78.4127 70.4047 78.0532 70.4046 77.6783V35.2723C70.4051 34.8976 70.5535 34.5383 70.8173 34.2733C71.081 34.0083 71.4387 33.8593 71.8117 33.8588H105.18C105.461 33.8599 105.736 33.945 105.968 34.1034C106.201 34.2618 106.381 34.4862 106.486 34.748C106.507 34.8002 106.524 34.8534 106.539 34.9075C106.571 35.0264 106.587 35.1491 106.587 35.2723V77.6783Z" fill="#3F3D56"/>
<path d="M99.8872 43.4675H89.8365C89.6233 43.4675 89.4188 43.3824 89.268 43.2309C89.1172 43.0794 89.0325 42.8739 89.0325 42.6597C89.0325 42.4455 89.1172 42.24 89.268 42.0886C89.4188 41.9371 89.6233 41.852 89.8365 41.852H99.8872C100.1 41.852 100.305 41.9371 100.456 42.0886C100.606 42.24 100.691 42.4455 100.691 42.6597C100.691 42.8739 100.606 43.0794 100.456 43.2309C100.305 43.3824 100.1 43.4675 99.8872 43.4675Z" fill="#3F3D56"/>
<path d="M99.8872 47.7081H89.8365C89.6233 47.7081 89.4188 47.623 89.268 47.4715C89.1172 47.32 89.0325 47.1146 89.0325 46.9003C89.0325 46.6861 89.1172 46.4807 89.268 46.3292C89.4188 46.1777 89.6233 46.0926 89.8365 46.0926H99.8872C100.1 46.0926 100.305 46.1777 100.456 46.3292C100.606 46.4807 100.691 46.6861 100.691 46.9003C100.691 47.1146 100.606 47.32 100.456 47.4715C100.305 47.623 100.1 47.7081 99.8872 47.7081Z" fill="#3F3D56"/>
<path d="M84.6795 50.1227H77.3345C77.0947 50.1224 76.8647 50.0266 76.6952 49.8562C76.5256 49.6859 76.4302 49.4549 76.4299 49.214V40.5067C76.4302 40.2657 76.5256 40.0348 76.6952 39.8644C76.8647 39.6941 77.0947 39.5982 77.3345 39.598H84.6795C84.9193 39.5982 85.1492 39.6941 85.3188 39.8644C85.4884 40.0348 85.5838 40.2657 85.5841 40.5067V49.214C85.5838 49.4549 85.4884 49.6859 85.3188 49.8562C85.1492 50.0266 84.9193 50.1224 84.6795 50.1227Z" fill="white"/>
<path d="M99.8175 56.3912H77.103C76.9973 56.3913 76.8926 56.3706 76.7949 56.3301C76.6972 56.2896 76.6084 56.2301 76.5336 56.1551C76.4588 56.0801 76.3994 55.9909 76.3589 55.8929C76.3184 55.7948 76.2976 55.6896 76.2976 55.5834C76.2976 55.4772 76.3184 55.3721 76.3589 55.274C76.3994 55.1759 76.4588 55.0868 76.5336 55.0118C76.6084 54.9368 76.6972 54.8773 76.7949 54.8368C76.8926 54.7963 76.9973 54.7755 77.103 54.7757H99.8175C100.03 54.7761 100.235 54.8613 100.385 55.0128C100.536 55.1642 100.62 55.3695 100.62 55.5834C100.62 55.7974 100.536 56.0026 100.385 56.1541C100.235 56.3055 100.03 56.3908 99.8175 56.3912Z" fill="#CCCCCC"/>
<path d="M99.8175 60.6318H77.103C76.9973 60.6319 76.8926 60.6112 76.7949 60.5707C76.6972 60.5302 76.6084 60.4707 76.5336 60.3957C76.4588 60.3206 76.3994 60.2315 76.3589 60.1335C76.3184 60.0354 76.2976 59.9302 76.2976 59.824C76.2976 59.7178 76.3184 59.6127 76.3589 59.5146C76.3994 59.4165 76.4588 59.3274 76.5336 59.2524C76.6084 59.1774 76.6972 59.1179 76.7949 59.0774C76.8926 59.0369 76.9973 59.0161 77.103 59.0163H99.8175C100.031 59.0163 100.235 59.1014 100.386 59.2529C100.537 59.4044 100.622 59.6098 100.622 59.824C100.622 60.0382 100.537 60.2437 100.386 60.3952C100.235 60.5467 100.031 60.6318 99.8175 60.6318Z" fill="#CCCCCC"/>
<path d="M99.8175 64.8724H77.103C76.9973 64.8726 76.8926 64.8518 76.7949 64.8113C76.6972 64.7708 76.6084 64.7113 76.5336 64.6363C76.4588 64.5613 76.3994 64.4722 76.3589 64.3741C76.3184 64.276 76.2976 64.1708 76.2976 64.0646C76.2976 63.9584 76.3184 63.8533 76.3589 63.7552C76.3994 63.6571 76.4588 63.568 76.5336 63.493C76.6084 63.418 76.6972 63.3585 76.7949 63.318C76.8926 63.2775 76.9973 63.2567 77.103 63.2569H99.8175C100.031 63.2569 100.235 63.342 100.386 63.4935C100.537 63.645 100.622 63.8504 100.622 64.0646C100.622 64.2789 100.537 64.4843 100.386 64.6358C100.235 64.7873 100.031 64.8724 99.8175 64.8724Z" fill="#CCCCCC"/>
<path d="M99.8175 69.113H77.103C76.9973 69.1132 76.8926 69.0924 76.7949 69.0519C76.6972 69.0114 76.6084 68.9519 76.5336 68.8769C76.4588 68.8019 76.3994 68.7128 76.3589 68.6147C76.3184 68.5166 76.2976 68.4114 76.2976 68.3052C76.2976 68.199 76.3184 68.0939 76.3589 67.9958C76.3994 67.8977 76.4588 67.8086 76.5336 67.7336C76.6084 67.6586 76.6972 67.5991 76.7949 67.5586C76.8926 67.5181 76.9973 67.4973 77.103 67.4975H99.8175C100.031 67.4975 100.235 67.5826 100.386 67.7341C100.537 67.8856 100.622 68.091 100.622 68.3052C100.622 68.5195 100.537 68.7249 100.386 68.8764C100.235 69.0279 100.031 69.113 99.8175 69.113Z" fill="#CCCCCC"/>
<path d="M99.8175 73.3536H77.103C76.9973 73.3538 76.8926 73.333 76.7949 73.2925C76.6972 73.252 76.6084 73.1926 76.5336 73.1175C76.4588 73.0425 76.3994 72.9534 76.3589 72.8553C76.3184 72.7572 76.2976 72.6521 76.2976 72.5459C76.2976 72.4397 76.3184 72.3346 76.3589 72.2365C76.3994 72.1384 76.4588 72.0493 76.5336 71.9742C76.6084 71.8992 76.6972 71.8397 76.7949 71.7992C76.8926 71.7587 76.9973 71.738 77.103 71.7382H99.8175C100.03 71.7385 100.235 71.8238 100.385 71.9752C100.536 72.1267 100.62 72.3319 100.62 72.5459C100.62 72.7599 100.536 72.9651 100.385 73.1165C100.235 73.268 100.03 73.3533 99.8175 73.3536Z" fill="#CCCCCC"/>
<path d="M132.144 50.672L113.122 68.8654L113.399 69.158L132.422 50.9646L132.144 50.672Z" fill="#E6E6E6"/>
<path d="M112.945 69.3134L115.359 69.2849L115.355 68.8806L113.372 68.9046L113.493 66.9169L113.092 66.8925L112.945 69.3134Z" fill="#E6E6E6"/>
<path d="M132.598 50.5158L132.452 52.9369L132.05 52.9128L132.171 50.9249L130.189 50.9488L130.185 50.5448L132.598 50.5158Z" fill="#E6E6E6"/>
<path d="M122.772 62.1363C123.993 62.1363 124.983 61.1418 124.983 59.915C124.983 58.6882 123.993 57.6937 122.772 57.6937C121.551 57.6937 120.561 58.6882 120.561 59.915C120.561 61.1418 121.551 62.1363 122.772 62.1363Z" fill="#E6E6E6"/>
<path d="M106.649 7.66195L87.6262 25.8553L87.9035 26.1479L106.926 7.95448L106.649 7.66195Z" fill="#E6E6E6"/>
<path d="M87.4485 26.3033L89.8629 26.2748L89.8586 25.8706L87.8761 25.8945L87.9974 23.9069L87.5957 23.8824L87.4485 26.3033Z" fill="#E6E6E6"/>
<path d="M107.103 7.50574L106.956 9.92687L106.554 9.90271L106.675 7.91482L104.693 7.93874L104.689 7.53473L107.103 7.50574Z" fill="#E6E6E6"/>
<path d="M97.2758 19.1262C98.497 19.1262 99.487 18.1317 99.487 16.9049C99.487 15.6782 98.497 14.6837 97.2758 14.6837C96.0547 14.6837 95.0647 15.6782 95.0647 16.9049C95.0647 18.1317 96.0547 19.1262 97.2758 19.1262Z" fill="#E6E6E6"/>
<path d="M182.785 125.868H182.304V128.043H182.785V125.868Z" fill="#3F3D56"/>
</g>
<defs>
<clipPath id="clip0_38_400">
<rect width="215" height="156" fill="white"/>
</clipPath>
</defs>
</svg>
